<?xml version="1.0" standalone="no"?>
<!DOCTYPE svg PUBLIC "-//W3C//DTD SVG 1.1//EN" "http://www.w3.org/Graphics/SVG/1.1/DTD/svg11.dtd" >
<svg xmlns="http://www.w3.org/2000/svg">
<metadata></metadata>
<defs>
<font id="breakbold" horiz-adv-x="534" >
<font-face units-per-em="1000" ascent="750" descent="-250" />
<missing-glyph horiz-adv-x="150" />
<glyph horiz-adv-x="0" />
<glyph horiz-adv-x="0" />
<glyph unicode=" "  horiz-adv-x="150" />
<glyph unicode="&#x09;" horiz-adv-x="150" />
<glyph unicode="&#xa0;" horiz-adv-x="150" />
<glyph unicode="!" horiz-adv-x="204" d="M42 117q-12 0 -20 8.5t-8 19.5v507q0 11 8 19.5t20 8.5q11 0 19.5 -8.5t8.5 -19.5v-507q0 -11 -8.5 -19.5t-19.5 -8.5zM42 84q17 0 29.5 -12.5t12.5 -29.5t-12.5 -29.5t-29.5 -12.5t-29.5 12.5t-12.5 29.5t12.5 29.5t29.5 12.5z" />
<glyph unicode="&#x22;" horiz-adv-x="833" />
<glyph unicode="#" horiz-adv-x="800" d="M651 254q12 0 20.5 -9t8.5 -21t-8.5 -20.5t-20.5 -8.5h-186l-23 -170q-2 -11 -10 -18t-19 -7h-4q-12 2 -19.5 11.5t-5.5 21.5l22 162h-172l-23 -170q-2 -11 -10 -18t-19 -7h-4q-12 2 -19.5 11.5t-5.5 21.5l22 162h-146q-12 0 -20.5 8.5t-8.5 20.5t8.5 21t20.5 9h154 l24 172h-178q-12 0 -20.5 8.5t-8.5 21.5q0 12 8.5 20.5t20.5 8.5h186l23 170q2 12 11.5 19.5t21.5 5.5t19.5 -11.5t5.5 -21.5l-22 -162h172l23 170q2 12 11.5 19.5t21.5 5.5t19.5 -11.5t5.5 -21.5l-22 -162h146q12 0 20.5 -8.5t8.5 -20.5q0 -13 -8.5 -21.5t-20.5 -8.5h-154 l-24 -172h178zM414 254l24 172h-172l-24 -172h172z" />
<glyph unicode="$" horiz-adv-x="490" d="M185 426q38 0 72 -14.5t59 -39.5t39.5 -59t14.5 -72q0 -35 -12 -65.5t-32.5 -54.5t-49 -40.5t-61.5 -21.5v-29q0 -13 -8.5 -21.5t-21.5 -8.5q-12 0 -21 8.5t-9 21.5v29q-33 5 -61.5 21.5t-49 40.5t-32.5 54.5t-12 65.5q0 57 32 104q7 11 19 13t22 -5q11 -7 13.5 -19 t-5.5 -23q-21 -30 -21 -70q0 -45 27 -78t68 -43v250q-42 11 -69 45t-27 79t27 78.5t69 44.5v33q0 13 9 21.5t21 8.5q13 0 21.5 -8.5t8.5 -21.5v-32q43 -10 71 -44.5t28 -79.5q0 -13 -9 -21.5t-21 -8.5q-13 0 -21.5 8.5t-8.5 21.5q0 28 -19.5 47.5t-48.5 19.5 q-28 0 -47.5 -19.5t-19.5 -47.5t19.5 -47.5t46.5 -20.5zM215 120q42 10 68.5 43t26.5 78t-26.5 78t-68.5 44v-243z" />
<glyph unicode="%" horiz-adv-x="833" d="M158 0q-7 0 -13 3q-11 6 -14.5 17.5t2.5 22.5l332 622q5 11 16.5 14t22.5 -2q11 -6 14.5 -17.5t-2.5 -22.5l-332 -622q-8 -15 -26 -15zM126 320q-26 0 -49 10t-40 27t-27 40t-10 49t10 49t27 40t40 27t49 10t49 -10t40 -27t27 -40t10 -49t-10 -49t-27 -40t-40 -27 t-49 -10zM126 514q-28 0 -48 -19.5t-20 -48.5q0 -28 20 -47.5t48 -19.5t48 19.5t20 47.5q0 29 -20 48.5t-48 19.5zM506 96q-26 0 -49 10t-40 27t-27 40t-10 49t10 49t27 40t40 27t49 10t49 -10t40 -27t27 -40t10 -49t-10 -49t-27 -40t-40 -27t-49 -10zM506 290 q-28 0 -47.5 -19.5t-19.5 -48.5q0 -28 19.5 -47.5t47.5 -19.5q29 0 48.5 19.5t19.5 47.5q0 29 -19.5 48.5t-48.5 19.5z" />
<glyph unicode="&#x26;" horiz-adv-x="615" d="M435 341q-2 -1 -3 -1t-3 -1l-8 -2q14 -25 22 -53.5t8 -58.5q0 -47 -17.5 -87.5t-48.5 -71.5t-72 -48.5t-88 -17.5t-87.5 17.5t-71.5 48.5t-48.5 71.5t-17.5 87.5q0 57 26 106t73 81l75 50q-29 14 -46.5 41.5t-17.5 61.5q0 24 9 44.5t25 36.5t36.5 25t44.5 9t45 -9t37 -25 t25 -36.5t9 -44.5q0 -30 -14 -55t-37 -41h-1l-157 -105q-35 -23 -54.5 -60t-19.5 -79q0 -35 13 -65t36 -53t53 -36t65 -13t65.5 13t53.5 36t36 53t13 65q0 55 -33 99l-19 -4q-10 -1 -15 -10q-6 -8 -4 -18q3 -12 -3.5 -22.5t-18.5 -12.5q-2 0 -3 -0.5t-3 -0.5q-11 0 -19 6.5 t-10 16.5q-6 35 12 62q19 30 51 36l89 19q10 2 15 10.5t3 18.5q-2 11 4.5 21.5t18.5 12.5q12 3 22 -3.5t12 -18.5q8 -32 -9 -59.5t-48 -36.5zM225 622q-23 0 -39.5 -17t-16.5 -40q0 -24 16.5 -40.5t39.5 -16.5q24 0 40.5 16.5t16.5 40.5q0 23 -16.5 40t-40.5 17z" />
<glyph unicode="(" horiz-adv-x="373" d="M221 -301q-13 0 -22 9q-66 66 -110.5 145t-66.5 164t-22 172.5t22 172.5t66.5 164t110.5 145q9 9 22 9t22 -9q10 -9 10 -22t-10 -23q-60 -60 -100.5 -131.5t-60.5 -148.5t-20 -157t20 -157t60.5 -148.5t100.5 -131.5q10 -9 10 -22t-10 -22q-9 -9 -22 -9z" />
<glyph unicode=")" horiz-adv-x="373" d="M31 -301q-13 0 -22 9t-9 22t9 22q60 60 100.5 131.5t60.5 148.5t20 157t-20 157t-60.5 148.5t-100.5 131.5q-9 10 -9 23t9 22t22 9t23 -9q66 -66 110.5 -145t66.5 -164t22 -172.5t-22 -172.5t-66.5 -164t-110.5 -145q-11 -9 -23 -9z" />
<glyph unicode="*" horiz-adv-x="356" d="M211 590q11 0 18 -7t7 -18t-7 -18t-18 -7h-47l34 -52q5 -8 3 -18.5t-10 -15.5q-7 -4 -14 -4q-13 0 -21 11l-38 59l-39 -59q-6 -11 -20 -11q-9 0 -14 4q-8 5 -10 15.5t3 18.5l34 52h-47q-11 0 -18 7t-7 18t7 18t18 7h47l-34 52q-5 8 -3 18t10 16q9 5 19 3t15 -10l39 -59 l38 59q6 8 16 10t19 -3q8 -6 10 -16t-3 -18l-34 -52h47v0z" />
<glyph unicode="+" horiz-adv-x="587" d="M438 252q12 0 21 -9t9 -21q0 -13 -9 -21.5t-21 -8.5h-175v-162q0 -13 -8.5 -21.5t-21.5 -8.5q-12 0 -20.5 8.5t-8.5 21.5v162h-175q-12 0 -21 8.5t-9 21.5q0 12 9 21t21 9h175v162q0 13 8.5 21.5t20.5 8.5q13 0 21.5 -8.5t8.5 -21.5v-162h175v0z" />
<glyph unicode="," horiz-adv-x="217" d="M48 96q20 0 34.5 -14t14.5 -34q0 -10 -5 -20l-30 -64q-4 -10 -16 -10q-5 0 -8 1q-6 3 -8.5 10t0.5 14l10 22q-17 3 -28.5 16t-11.5 31q0 20 14 34t34 14z" />
<glyph unicode="-" horiz-adv-x="321" d="M172 193h-142q-13 0 -21.5 8.5t-8.5 21.5q0 12 8.5 21t21.5 9h142q12 0 20.5 -9t8.5 -21q0 -13 -8.5 -21.5t-20.5 -8.5z" />
<glyph unicode="." horiz-adv-x="217" d="M48 96q20 0 34.5 -14t14.5 -34t-14.5 -34t-34.5 -14t-34 14t-14 34t14 34t34 14z" />
<glyph unicode="/" horiz-adv-x="435" d="M29 0q-5 0 -11 2q-11 5 -16 16t0 22l258 622q5 11 15.5 16t21.5 0t15.5 -16t-0.5 -22l-257 -622q-8 -18 -26 -18z" />
<glyph unicode="0" horiz-adv-x="553" d="M432 218q0 -45 -16.5 -84.5t-45 -69t-67.5 -47t-84 -17.5h-3q-44 0 -83.5 16.5t-68.5 45.5t-46.5 68t-17.5 84v248q0 13 9 22t22 9q14 0 23 -9t9 -22v-248q0 -32 12.5 -59.5t33 -47.5t48 -32t59.5 -12h2q31 0 59 12.5t48.5 33.5t32 49t11.5 60v248q0 31 -12 58.5 t-34 48.5t-49.5 32.5t-57.5 11.5h-2q-26 -1 -50.5 -9.5t-44.5 -25.5q-7 -6 -13.5 -12t-11.5 -14q-8 -10 -12 -19q-7 -11 -19.5 -15t-23.5 2q-11 7 -15 19.5t2 23.5q4 7 8 13.5t9 13.5q8 10 17 19.5t19 17.5q29 23 63.5 35.5t71.5 13.5h2q43 0 81.5 -16t69.5 -46t47.5 -69 t17.5 -83v-248z" />
<glyph unicode="1" horiz-adv-x="313" d="M161 680q14 0 23 -9t9 -23v-616q0 -14 -9 -23t-23 -9q-13 0 -22 9t-9 23v616q0 14 9 23t22 9zM52 584q9 9 22 9t23 -9q9 -10 9 -23t-9 -22l-43 -43q-9 -9 -22 -9q-14 0 -23 9t-9 22.5t9 22.5z" />
<glyph unicode="2" horiz-adv-x="520" d="M112 356q-12 0 -22 9q-27 26 -41.5 60t-14.5 72t14.5 71.5t39 58t58 39t71.5 14.5t71.5 -14.5t58 -39t39 -58t14.5 -71.5q0 -67 -45 -120l-237 -289q-9 -12 -24 -12q-13 0 -20 7q-11 8 -12 21t7 24l236 289l1 1q30 35 30 79q0 25 -9.5 46.5t-25.5 37.5t-37.5 25.5 t-46.5 9.5t-46.5 -9.5t-37.5 -25.5t-25.5 -37.5t-9.5 -46.5q0 -50 36 -86q10 -9 10.5 -22t-9.5 -23t-23 -10zM346 63q14 0 23 -9t9 -22q0 -14 -9 -23t-23 -9h-314q-14 0 -23 9t-9 23q0 13 9 22t23 9h314z" />
<glyph unicode="3" horiz-adv-x="519" d="M199 399q42 0 78.5 -15.5t63.5 -42.5t42.5 -63.5t15.5 -78.5q0 -41 -15.5 -77.5t-42.5 -63.5t-63.5 -42.5t-78.5 -15.5q-41 0 -77.5 15.5t-63.5 42.5t-42.5 63.5t-15.5 77.5q0 64 36 114q8 11 20.5 13.5t23.5 -5.5t13.5 -20.5t-5.5 -23.5q-25 -36 -25 -78q0 -28 10.5 -53 t29 -43.5t43.5 -29t53 -10.5t53 10.5t44 29t29.5 43.5t10.5 53t-10.5 53t-29.5 44t-44 29.5t-53 10.5q-13 0 -22 9t-9 22q0 14 9 23t22 9zM107 398q-11 -8 -23.5 -6.5t-20.5 12.5q-35 46 -35 104q0 36 13.5 67t37 54.5t54.5 37t67 13.5q35 0 66.5 -13.5t55 -37t37 -54.5 t13.5 -67q0 -65 -43 -113q-9 -11 -23 -11q-11 0 -21 8t-11 21t8 24q13 14 19.5 32.5t6.5 38.5q0 22 -8.5 42t-23 35t-34.5 23.5t-42 8.5q-23 0 -42.5 -8.5t-34.5 -23.5t-23.5 -35t-8.5 -42q0 -36 22 -66q8 -11 6.5 -23.5t-12.5 -20.5z" />
<glyph unicode="4" horiz-adv-x="502" d="M347 191q14 0 23 -9.5t9 -22.5q0 -14 -9 -23t-23 -9h-24v-95q0 -14 -9 -23t-23 -9q-13 0 -22.5 9t-9.5 23v95h-227q-14 0 -23 9t-9 23q0 13 9 22.5t23 9.5h227v331l-158 -300q-10 -18 -28 -18q-5 0 -15 4q-12 6 -16 19t3 24l216 412q6 11 17.5 15.5t22.5 -0.5 q22 -8 22 -31v-456h24v0z" />
<glyph unicode="5" horiz-adv-x="555" d="M217 435q45 0 84.5 -17t69.5 -47t47 -69.5t17 -84.5t-17 -84.5t-47 -69t-69.5 -46.5t-84.5 -17t-84.5 17t-69 46.5t-46.5 69t-17 84.5q0 14 9 23t23 9q13 0 22 -9t9 -23q0 -32 12 -60t33 -49t49 -33t60 -12t60 12t49 33t33 49t12 60t-12 60t-33 49t-49 33t-60 12 t-61.5 -13t-51.5 -37q-9 -10 -22 -10.5t-23 8.5t-10.5 22t8.5 23q31 34 72.5 52.5t87.5 18.5zM93 411q-14 2 -21 13t-5 24l37 205q3 13 14 21q7 6 18 6h189q14 0 23 -9t9 -23q0 -13 -9 -22t-23 -9h-163l-32 -180q-2 -12 -11.5 -19t-20.5 -7h-5z" />
<glyph unicode="6" horiz-adv-x="555" d="M155 438q-11 8 -12 20.5t7 23.5l146 186q8 11 20.5 12t23.5 -7t12.5 -21t-6.5 -23l-147 -186q-9 -12 -25 -12q-11 0 -19 7zM217 435q45 0 84.5 -17t69.5 -47t47 -69.5t17 -84.5t-17 -84.5t-47 -69t-69.5 -46.5t-84.5 -17t-84.5 17t-69 46.5t-46.5 69t-17 84.5t17 84.5 t46.5 69.5t69 47t84.5 17zM217 63q32 0 60 12t49 33t33 49t12 60t-12 60t-33 49t-49 33t-60 12t-60 -12t-49 -33t-33 -49t-12 -60t12 -60t33 -49t49 -33t60 -12z" />
<glyph unicode="7" horiz-adv-x="474" d="M322 616h-290q-14 0 -23 9.5t-9 22.5q0 14 9 23t23 9h290q14 0 23 -9t9 -23q0 -13 -9 -22.5t-23 -9.5zM137 0q-6 0 -9 1q-13 4 -19 15.5t-2 24.5l161 538q4 12 15.5 18.5t24.5 2.5t19 -15.5t2 -24.5l-161 -537q-3 -11 -11.5 -17t-19.5 -6z" />
<glyph unicode="8" horiz-adv-x="548" d="M317 403q50 -28 80.5 -77.5t30.5 -111.5q0 -44 -17 -83t-46 -68t-68 -46t-83 -17t-83 17t-68 46t-46 68t-17 83q0 47 19 89t54 73q11 8 24 7.5t21 -10.5q9 -11 8 -24t-11 -21q-25 -22 -38 -51.5t-13 -62.5q0 -31 12 -58.5t32 -47.5t47.5 -32t58.5 -12t58.5 12t48 32 t32.5 47.5t12 58.5q0 30 -11.5 57t-31 47.5t-46 33t-56.5 13.5h-6q-33 0 -61.5 12.5t-50 33.5t-34 49.5t-12.5 61.5t12.5 61.5t34 50t50 34t61.5 12.5t61.5 -12.5t50 -34t34 -50t12.5 -61.5q0 -36 -15 -67t-40 -52zM120 522q0 -20 7.5 -37t20 -29.5t29.5 -20t37 -7.5 q19 0 36.5 7.5t30 20t20 29.5t7.5 37q0 19 -7.5 36.5t-20 30t-30 20t-36.5 7.5q-20 0 -37 -7.5t-29.5 -20t-20 -30t-7.5 -36.5z" />
<glyph unicode="9" horiz-adv-x="555" d="M435 463q0 -40 -13.5 -76t-37.5 -64.5t-56.5 -47.5t-70.5 -26q13 2 23 -7q11 -8 12 -20.5t-7 -23.5l-146 -186q-9 -12 -25 -12q-12 0 -19 7q-11 8 -12.5 20.5t6.5 23.5l146 186q9 10 21 12q-9 -2 -18.5 -3t-20.5 -1q-45 0 -84.5 17t-69 47t-46.5 69.5t-17 84.5t17 84.5 t46.5 69t69 46.5t84.5 17t84.5 -17t69.5 -46.5t47 -69t17 -84.5zM217 309q32 0 60 12t49 33t33 49t12 60q0 31 -12 59t-33 49t-49 33.5t-60 12.5t-60 -12.5t-49 -33.5t-33 -49t-12 -59q0 -32 12 -60t33 -49t49 -33t60 -12z" />
<glyph unicode=":" horiz-adv-x="217" d="M48 347q-20 0 -34 14.5t-14 34.5t14 34t34 14t34.5 -14t14.5 -34t-14.5 -34.5t-34.5 -14.5zM48 95q20 0 34.5 -14t14.5 -34t-14.5 -34.5t-34.5 -14.5t-34 14.5t-14 34.5t14 34t34 14z" />
<glyph unicode=";" horiz-adv-x="217" d="M48 347q-20 0 -34 14.5t-14 34.5t14 34t34 14t34.5 -14t14.5 -34t-14.5 -34.5t-34.5 -14.5zM48 95q20 0 34.5 -14t14.5 -34q0 -6 -1.5 -11t-3.5 -10l-30 -63q-5 -11 -16 -11q-2 0 -8 2q-6 3 -8.5 10t0.5 13l10 22q-17 3 -28.5 16.5t-11.5 31.5q0 20 14 34t34 14z" />
<glyph unicode="&#x3c;" horiz-adv-x="372" d="M243 435q8 -8 8 -20.5t-8 -21.5l-172 -171l172 -171q8 -9 8 -21.5t-8 -20.5q-9 -9 -21 -9t-21 9l-192 192q-9 9 -9 21t9 21l192 192q8 9 20.5 9t21.5 -9z" />
<glyph unicode="=" horiz-adv-x="555" d="M405 189q13 0 21.5 -9t8.5 -21t-8.5 -21t-21.5 -9h-375q-13 0 -21.5 9t-8.5 21t8.5 21t21.5 9h375zM30 248q-13 0 -21.5 8.5t-8.5 21.5q0 12 8.5 21t21.5 9h375q13 0 21.5 -9t8.5 -21q0 -13 -8.5 -21.5t-21.5 -8.5h-375z" />
<glyph unicode="&#x3e;" horiz-adv-x="372" d="M9 435q8 9 20.5 9t21.5 -9l192 -192q8 -8 8 -21t-8 -21l-192 -192q-9 -9 -21 -9q-14 0 -21 9q-9 8 -9 20.5t9 21.5l171 171l-171 171q-9 9 -9 21.5t9 20.5z" />
<glyph unicode="?" horiz-adv-x="493" d="M187 87q18 0 30.5 -12.5t12.5 -30.5t-12.5 -31t-30.5 -13t-31 13t-13 31t13 30.5t31 12.5zM187 680q38 0 72 -14.5t59.5 -40t40 -59t14.5 -72.5q0 -38 -14 -72t-40 -60q-43 -43 -103 -52v-165q0 -12 -8.5 -21t-20.5 -9q-13 0 -21.5 9t-8.5 21v191q0 13 8.5 21.5t21.5 8.5 q53 0 90 37t37 91q0 26 -10 49.5t-27.5 41t-40.5 27.5t-49 10q-27 0 -50 -10t-40.5 -27.5t-27.5 -41t-10 -49.5q0 -13 -8.5 -21.5t-21.5 -8.5q-12 0 -20.5 8.5t-8.5 21.5q0 39 14.5 72.5t40 59t59.5 40t73 14.5z" />
<glyph unicode="@" horiz-adv-x="800" d="M680 340q0 -96 -50 -178h-1v-1q-17 -24 -42 -37t-52 -13q-35 0 -64 20q-17 11 -28.5 27t-16.5 34q-20 -11 -41.5 -17t-44.5 -6q-35 0 -66.5 13.5t-54.5 36.5t-36.5 54.5t-13.5 66.5t13.5 66t36.5 54.5t54.5 37t66.5 13.5t66 -13.5t54.5 -37t37 -54.5t13.5 -66 q0 -24 -6.5 -45.5t-17.5 -41.5l-1 -1q-10 -19 -4.5 -40t22.5 -32q19 -13 41 -9t35 23q41 67 41 146q0 58 -22 109t-60.5 89.5t-89.5 60.5t-109 22t-109 -22t-89.5 -60.5t-60.5 -89.5t-22 -109t22 -109t60.5 -89.5t89.5 -60.5t109 -22q12 0 20.5 -8.5t8.5 -21.5 q0 -12 -8.5 -20.5t-20.5 -8.5q-71 0 -132.5 26.5t-108 73t-73 108t-26.5 132.5q0 70 26.5 132t73 108t108 73t132.5 27q70 0 132 -27t108 -73t73 -108t27 -132zM340 228q23 0 43.5 9t35.5 24t24 35.5t9 43.5t-9 43.5t-24 35.5t-35.5 24t-43.5 9t-43.5 -9t-35.5 -24 t-24 -35.5t-9 -43.5t9 -43.5t24 -35.5t35.5 -24t43.5 -9z" />
<glyph unicode="A" horiz-adv-x="676" d="M611 41q5 -11 0.5 -22.5t-15.5 -16.5q-8 -2 -12 -2q-19 0 -27 17l-250 563l-126 -281h142q13 0 21.5 -8.5t8.5 -20.5t-8.5 -21t-21.5 -9h-168l-99 -223q-8 -17 -27 -17q-4 0 -12 2q-11 5 -15.5 16.5t0.5 22.5l107 240l171 382q6 15 25 17h3q18 -2 26 -17l277 -622v0z" />
<glyph unicode="B" horiz-adv-x="564" d="M263 462q42 -6 79 -26t64 -51t42.5 -70t15.5 -83q0 -48 -18.5 -90.5t-50 -74t-73.5 -49.5t-90 -18h-203q-12 0 -20.5 8.5t-8.5 20.5v488q0 12 8.5 20.5t20.5 8.5t20.5 -8.5t8.5 -20.5v-132q47 53 114 71q24 10 38.5 31.5t14.5 47.5q0 36 -25.5 61.5t-61.5 25.5h-109 q-12 0 -20.5 8.5t-8.5 20.5t8.5 20.5t20.5 8.5h112h3q29 -1 54.5 -13t44 -31.5t29.5 -45.5t11 -55q0 -20 -5.5 -38.5t-14.5 -34.5zM232 58q36 0 67.5 13.5t55.5 37.5t37.5 55.5t13.5 67.5t-13.5 67.5t-37.5 55.5t-55.5 37.5t-67.5 13.5t-67.5 -13.5t-55.5 -37.5t-37.5 -55.5 t-13.5 -67.5v-174h174z" />
<glyph unicode="C" horiz-adv-x="663" d="M552 606q9 -8 10.5 -19.5t-6.5 -21.5q-8 -11 -23 -11q-9 0 -18 6q-38 30 -82.5 46t-92.5 16q-86 0 -157 -48q-11 -7 -22.5 -5t-18.5 13q-7 10 -4.5 21.5t12.5 18.5q42 29 90.5 43.5t99.5 14.5q59 0 112.5 -19t99.5 -55zM340 58q12 0 20.5 -8.5t8.5 -20.5t-8.5 -20.5 t-20.5 -8.5q-71 0 -132.5 26.5t-108 73t-73 108t-26.5 132.5q0 69 28 136q5 11 16.5 15.5t22.5 -0.5t15.5 -16t-0.5 -22q-24 -54 -24 -113q0 -58 22.5 -109.5t60.5 -89.5t89.5 -60.5t109.5 -22.5z" />
<glyph unicode="D" horiz-adv-x="594" d="M153 680q70 0 132.5 -27t108.5 -73t73 -108.5t27 -132.5q0 -60 -20 -115t-55.5 -99t-84.5 -75t-107 -44q-1 0 -17 -3t-35 -3h-146q-12 0 -20.5 8.5t-8.5 20.5q0 13 8.5 21.5t20.5 8.5h146q21 0 37 4q49 10 90 35.5t71 62.5t46.5 82.5t16.5 95.5q0 58 -22.5 109.5 t-60.5 89.5t-90 60.5t-110 22.5q-20 0 -37 -7.5t-29.5 -20t-20 -30t-7.5 -36.5v-367q0 -13 -8.5 -21.5t-21.5 -8.5q-12 0 -20.5 8.5t-8.5 21.5v367q0 31 12 59t33 49t48.5 33t59.5 12z" />
<glyph unicode="E" horiz-adv-x="474" d="M344 58q13 0 21.5 -8.5t8.5 -20.5t-8.5 -20.5t-21.5 -8.5h-215h-2q-26 1 -48.5 11t-39.5 26.5t-27.5 38.5t-11.5 48v3v390v9q0 12 8.5 20.5t20.5 8.5t20.5 -8.5t8.5 -20.5v-9v-148h129q12 0 20.5 -8.5t8.5 -20.5t-8.5 -20.5t-20.5 -8.5h-129v-181q0 -30 21 -51t51 -21 h214zM29 622q-12 0 -20.5 8.5t-8.5 20.5t8.5 20.5t20.5 8.5h280q12 0 20.5 -8.5t8.5 -20.5t-8.5 -20.5t-20.5 -8.5h-280z" />
<glyph unicode="F" horiz-adv-x="477" d="M29 252q12 0 20.5 -8.5t8.5 -20.5v-194q0 -12 -8.5 -20.5t-20.5 -8.5t-20.5 8.5t-8.5 20.5v194q0 12 8.5 20.5t20.5 8.5zM378 680q12 0 20.5 -8.5t8.5 -20.5t-8.5 -20.5t-20.5 -8.5h-248q-30 0 -51 -21.5t-21 -50.5v-181h162q12 0 20.5 -8.5t8.5 -20.5t-8.5 -20.5 t-20.5 -8.5h-191q-12 0 -20.5 8.5t-8.5 20.5v213v2q1 26 11.5 48.5t27.5 39t39.5 26.5t48.5 11h2h249z" />
<glyph unicode="G" horiz-adv-x="643" d="M543 83q0 -16 -13 -25q-34 -23 -70 -36q-33 -13 -70 -18q-12 -2 -24.5 -3t-25.5 -1q-71 0 -132.5 26.5t-108 73t-73 108t-26.5 132.5q0 70 26.5 132t73 108t108 73t132.5 27q103 0 189 -57q10 -7 12.5 -18.5t-4.5 -22.5q-7 -10 -18.5 -12.5t-22.5 4.5q-71 48 -156 48 q-58 0 -109.5 -22.5t-89.5 -60.5t-60.5 -89.5t-22.5 -109.5t22.5 -109.5t60.5 -89.5t89.5 -60.5t109.5 -22.5q21 0 41 3q31 5 59 15q11 5 22.5 10.5t22.5 12.5v56q0 12 8.5 20.5t20.5 8.5t20.5 -8.5t8.5 -20.5v-72zM514 318q12 0 20.5 -9t8.5 -21t-8.5 -20.5t-20.5 -8.5h-78 q-12 0 -20.5 8.5t-8.5 20.5t8.5 21t20.5 9h78z" />
<glyph unicode="H" horiz-adv-x="596" d="M467 680q12 0 20.5 -8.5t8.5 -20.5v-622q0 -12 -8.5 -20.5t-20.5 -8.5t-21 8.5t-9 20.5v622q0 12 9 20.5t21 8.5zM333 369q12 0 20.5 -8.5t8.5 -20.5t-8.5 -20.5t-20.5 -8.5h-275v-282q0 -12 -8.5 -20.5t-20.5 -8.5t-20.5 8.5t-8.5 20.5v622q0 12 8.5 20.5t20.5 8.5 t20.5 -8.5t8.5 -20.5v-282h275z" />
<glyph unicode="I" horiz-adv-x="487" d="M47 622q-12 0 -21 8.5t-9 20.5t9 20.5t21 8.5h294q12 0 20.5 -8.5t8.5 -20.5t-8.5 -20.5t-20.5 -8.5h-294zM358 58q12 0 20.5 -8.5t8.5 -20.5t-8.5 -20.5t-20.5 -8.5h-329q-12 0 -20.5 8.5t-8.5 20.5t8.5 20.5t20.5 8.5h136v459q0 12 8.5 20.5t20.5 8.5t20.5 -8.5 t8.5 -20.5v-459h135z" />
<glyph unicode="J" horiz-adv-x="471" d="M342 215q12 0 20.5 -8.5t8.5 -20.5q0 -39 -14.5 -72.5t-39.5 -59t-59 -40t-72 -14.5q-39 0 -72.5 14.5t-59 40t-40 59t-14.5 72.5q0 12 8.5 20.5t20.5 8.5t20.5 -8.5t8.5 -20.5q0 -27 10 -50t27.5 -40.5t40.5 -27.5t50 -10q26 0 49 10t40.5 27.5t27.5 40.5t10 50 q0 12 8.5 20.5t20.5 8.5zM342 680q12 0 20.5 -8.5t8.5 -20.5v-332q0 -12 -8.5 -20.5t-20.5 -8.5t-20.5 8.5t-8.5 20.5v332q0 12 8.5 20.5t20.5 8.5z" />
<glyph unicode="K" horiz-adv-x="549" d="M398 671q8 8 20 8.5t21 -7.5t9.5 -20t-7.5 -21l-383 -411v-191q0 -12 -8.5 -20.5t-20.5 -8.5t-20.5 8.5t-8.5 20.5v203v415q0 12 8.5 20.5t20.5 8.5t20.5 -8.5t8.5 -20.5v-341zM413 49q8 -8 8 -20.5t-8 -20.5q-10 -8 -21 -8q-12 0 -21 9l-183 188q-8 9 -8 21t9 21 q8 8 20.5 8t20.5 -9z" />
<glyph unicode="L" horiz-adv-x="512" d="M29 240q-12 0 -20.5 8.5t-8.5 20.5v382q0 12 8.5 20.5t20.5 8.5t20.5 -8.5t8.5 -20.5v-382q0 -12 -8.5 -20.5t-20.5 -8.5zM383 58q12 0 20.5 -8.5t8.5 -20.5t-8.5 -20.5t-20.5 -8.5h-248q-28 0 -52.5 10.5t-43 29t-29 43t-10.5 52.5q0 12 8.5 20.5t20.5 8.5t20.5 -8.5 t8.5 -20.5q0 -32 22.5 -54.5t54.5 -22.5h248z" />
<glyph unicode="M" horiz-adv-x="697" d="M29 530q12 0 20.5 -8.5t8.5 -20.5v-472q0 -12 -8.5 -20.5t-20.5 -8.5t-20.5 8.5t-8.5 20.5v472q0 12 8.5 20.5t20.5 8.5zM568 679q12 0 20.5 -8.5t8.5 -20.5v-621q0 -12 -8.5 -20.5t-20.5 -8.5t-20.5 8.5t-8.5 20.5v549l-219 -230q-8 -9 -21 -9h-1q-13 0 -22 9l-268 283 q-8 8 -8 20.5t9 20.5t21 8t20 -9l248 -261l247 260q9 9 22 9h1z" />
<glyph unicode="N" horiz-adv-x="609" d="M29 680q12 0 20.5 -8.5t8.5 -20.5v-622q0 -12 -8.5 -20.5t-20.5 -8.5t-20.5 8.5t-8.5 20.5v622q0 12 8.5 20.5t20.5 8.5zM480 680q12 0 20.5 -8.5t8.5 -20.5v-620q0 -12 -8.5 -20.5t-20.5 -8.5h-1q-17 0 -24 12l-335 467q-7 11 -5 22.5t12 18.5q10 8 22 6t19 -13 l283 -395v531q0 12 8.5 20.5t20.5 8.5z" />
<glyph unicode="O" horiz-adv-x="770" d="M340 680q70 0 132 -27t108 -73t73 -108t27 -132q0 -71 -27 -132.5t-73 -108t-108 -73t-132 -26.5q-71 0 -132.5 26.5t-108 73t-73 108t-26.5 132.5q0 44 11 85.5t31 79.5q6 11 17.5 14t22.5 -3t14 -17.5t-3 -22.5q-35 -62 -35 -136q0 -58 22.5 -109.5t60.5 -89.5 t89.5 -60.5t109.5 -22.5t109.5 22.5t89.5 60.5t60.5 89.5t22.5 109.5t-22.5 109.5t-60.5 89.5t-89.5 60.5t-109.5 22.5q-73 0 -137 -35q-11 -6 -22 -3t-17 14t-3 22.5t14 16.5q77 43 165 43z" />
<glyph unicode="P" horiz-adv-x="629" d="M264 680q55 0 103 -21t84 -57t57 -84t21 -102q0 -55 -21 -103t-57 -84t-84 -57t-103 -21q-63 0 -116 27t-89 72v-221q0 -12 -8.5 -20.5t-20.5 -8.5q-13 0 -21.5 8.5t-8.5 20.5v380v7v3v98q0 12 8.5 20.5t21.5 8.5q12 0 20.5 -8.5t8.5 -20.5v-108q1 -41 17.5 -77.5 t44.5 -63.5t64.5 -42.5t78.5 -15.5q43 0 80.5 16t65.5 44t44 65.5t16 80.5q0 42 -16 79.5t-44 65.5t-65.5 44t-80.5 16h-233q-12 0 -20.5 9t-8.5 21t8.5 20.5t20.5 8.5h233v0z" />
<glyph unicode="Q" horiz-adv-x="840" d="M750 53q9 -8 9.5 -20.5t-7.5 -21.5t-21 -9q-12 0 -20 7l-190 169q-9 8 -10 20t7 21t20 9.5t21 -7.5l25 -22q32 56 37 119q4 58 -14 111t-53 94t-84.5 67t-107.5 31q-59 4 -111.5 -14t-94 -53t-67.5 -84.5t-30 -107.5q-5 -57 12.5 -109.5t54.5 -95.5q37 -44 86 -68.5 t106 -29.5q72 -6 139 25q11 5 22.5 0.5t16.5 -15.5t0.5 -22t-15.5 -16q-65 -31 -141 -31h-13.5t-12.5 1q-69 5 -128 35.5t-104 82.5t-65.5 115.5t-15.5 131.5q5 70 36.5 129.5t81 102t113.5 64.5t134 17q70 -6 129.5 -37.5t102 -81t64.5 -113t17 -133.5q-6 -83 -51 -154z " />
<glyph unicode="R" horiz-adv-x="628" d="M264 680q54 0 102 -20.5t84 -56.5t57 -84t21 -103q0 -50 -18 -95t-49 -80t-73.5 -58t-91.5 -29l129 -99q10 -8 11.5 -19.5t-6.5 -21.5q-9 -11 -23 -11q-11 0 -18 6l-331 256v-236q0 -12 -8.5 -20.5t-20.5 -8.5t-20.5 8.5t-8.5 20.5v488q0 12 8.5 20.5t20.5 8.5t20.5 -8.5 t8.5 -20.5v-179l137 -105q14 -11 32 -17t37 -6q42 0 79.5 16.5t65.5 44.5t44 65.5t16 79.5t-16 79.5t-44 65.5t-65.5 44.5t-79.5 16.5h-235q-12 0 -20.5 8.5t-8.5 20.5t8.5 20.5t20.5 8.5h235v0z" />
<glyph unicode="S" horiz-adv-x="540" d="M85 310q-28 -42 -28 -90q0 -4 0.5 -7t0.5 -7q1 -11 -7 -20t-19 -11h-3q-11 0 -19 8t-9 19q-1 5 -1 9v9q0 66 37 122q7 10 18.5 12.5t21.5 -4.5t12.5 -18.5t-4.5 -21.5zM355 393q41 -32 63 -77t22 -96q0 -45 -17.5 -85t-47.5 -70t-70 -47.5t-85 -17.5q-70 0 -125 39 q-10 7 -12.5 18.5t5.5 21.5q7 10 18 12t21 -5q43 -29 93 -29q33 0 62.5 13t51.5 35t35 51.5t13 63.5q0 38 -16.5 71.5t-45.5 56.5q-45 34 -100 34h-2q-30 1 -56.5 13t-46 32t-31 47t-11.5 57q0 31 11.5 58t31.5 47t47 32t58 12t58 -12t47 -32t32 -47t12 -58 q0 -12 -8.5 -20.5t-19.5 -8.5q-12 0 -20.5 8.5t-8.5 20.5q0 19 -7 36t-19.5 29.5t-29.5 19.5t-36 7t-35.5 -7t-29 -19.5t-19.5 -29.5t-7 -36q0 -38 26.5 -64.5t64.5 -26.5h1q75 -2 133 -47z" />
<glyph unicode="T" horiz-adv-x="671" d="M561 680q13 0 21.5 -8.5t8.5 -20.5q0 -13 -8.5 -21.5t-21.5 -8.5h-532q-12 0 -20.5 8.5t-8.5 21.5q0 12 8.5 20.5t20.5 8.5h532zM295 547q12 0 21 -8.5t9 -20.5v-489q0 -12 -9 -20.5t-21 -8.5t-20.5 8.5t-8.5 20.5v489q0 12 8.5 20.5t20.5 8.5z" />
<glyph unicode="U" horiz-adv-x="570" d="M149 58q12 0 20.5 -8.5t8.5 -20.5t-8.5 -20.5t-20.5 -8.5q-31 0 -58 11.5t-47.5 32t-32 47.5t-11.5 58v502q0 12 8.5 20.5t20.5 8.5t20.5 -8.5t8.5 -20.5v-502q0 -38 26.5 -64.5t64.5 -26.5zM441 680q12 0 20.5 -8.5t8.5 -20.5v-502q0 -31 -12 -58t-32 -47.5t-47 -32 t-58 -11.5q-12 0 -20.5 8.5t-8.5 20.5t8.5 20.5t20.5 8.5q38 0 64.5 26.5t26.5 64.5v502q0 12 8.5 20.5t20.5 8.5z" />
<glyph unicode="V" horiz-adv-x="679" d="M257 191q5 -11 0.5 -22.5t-15.5 -16.5q-8 -2 -12 -2q-8 0 -15.5 4.5t-11.5 13.5l-201 471q-5 11 0 22.5t16 16.5t22 0t16 -16zM570 678q11 -5 16 -16.5t0 -22.5l-265 -621q-8 -18 -27 -18q-5 0 -11 2q-11 5 -16 16.5t0 22.5l265 621q5 11 16 16t22 0z" />
<glyph unicode="W" horiz-adv-x="715" d="M29 150q-12 0 -20.5 8.5t-8.5 20.5v472q0 12 8.5 20.5t20.5 8.5t20.5 -8.5t8.5 -20.5v-472q0 -12 -8.5 -20.5t-20.5 -8.5zM586 680q12 0 20.5 -8.5t8.5 -20.5v-620q0 -12 -8.5 -20.5t-20.5 -8.5h-1h-1q-12 0 -19 7l-257 234l-259 -235q-8 -8 -20 -8q-14 0 -21 10 q-8 8 -7.5 20.5t9.5 20.5l277 252q8 7 20 7h1q13 0 21 -7l228 -208v556q0 12 8.5 20.5t20.5 8.5z" />
<glyph unicode="X" horiz-adv-x="629" d="M517 670q9 -7 11 -19t-6 -21l-220 -290l220 -291q8 -9 6 -21t-11 -19q-9 -6 -18 -6q-14 0 -23 11l-470 619q-8 10 -6 21.5t11 19.5q10 8 21.5 6t19.5 -12l213 -280l211 277q8 10 19.5 11.5t21.5 -6.5zM201 265q10 -7 11.5 -18.5t-5.5 -21.5l-155 -213q-8 -12 -23 -12 q-9 0 -17 5q-10 8 -12 19.5t5 21.5l155 213q7 10 19 12t22 -6z" />
<glyph unicode="Y" horiz-adv-x="635" d="M521 676q11 -7 13.5 -18.5t-4.5 -22.5l-242 -389q-9 -14 -25 -14h-1q-17 0 -26 14l-232 390q-6 11 -3.5 22.5t13.5 17.5t22.5 3.5t17.5 -13.5l209 -350l218 350q6 11 17.5 13.5t22.5 -3.5zM262 155q12 0 20.5 -8.5t8.5 -20.5v-97q0 -12 -8.5 -20.5t-20.5 -8.5t-20.5 8.5 t-8.5 20.5v97q0 12 8.5 20.5t20.5 8.5z" />
<glyph unicode="Z" horiz-adv-x="746" d="M172 622q-12 0 -20.5 8.5t-8.5 20.5t8.5 20.5t20.5 8.5h426q12 0 20.5 -8.5t8.5 -20.5t-8.5 -20.5t-20.5 -8.5h-426zM617 58q12 0 20.5 -8.5t8.5 -20.5t-8.5 -20.5t-20.5 -8.5h-587q-10 0 -17 5t-10 13q-8 19 5 32l450 488q8 9 20 9.5t21 -7.5t9.5 -20t-7.5 -21 l-407 -441h523z" />
<glyph unicode="[" horiz-adv-x="299" d="M62 617v-856h86q13 0 22 -9t9 -22t-9 -22t-22 -9h-117q-13 0 -22 9t-9 22v919q0 13 9 22t22 9h117q13 0 22 -9t9 -22q0 -14 -9 -23t-22 -9h-86z" />
<glyph unicode="\" horiz-adv-x="435" d="M286 0q-19 0 -26 18l-258 622q-5 11 0 22t16 16t21.5 0t15.5 -16l257 -622q5 -11 0.5 -22t-15.5 -16q-3 -1 -5.5 -1.5t-5.5 -0.5z" />
<glyph unicode="]" horiz-adv-x="299" d="M31 617q-13 0 -22 9t-9 23q0 13 9 22t22 9h117q13 0 22 -9t9 -22v-919q0 -13 -9 -22t-22 -9h-117q-13 0 -22 9t-9 22t9 22t22 9h86v856h-86z" />
<glyph unicode="^" horiz-adv-x="411" d="M287 482q5 -8 3 -16t-9 -13q-6 -3 -12 -3q-11 0 -17 9l-107 164l-107 -164q-6 -9 -17 -9q-6 0 -12 3q-7 5 -9 13t3 16l124 189q6 9 18 9t18 -9l124 -189v0z" />
<glyph unicode="_" horiz-adv-x="508" d="M359 -193h-329q-13 0 -21.5 9t-8.5 21t8.5 21t21.5 9h329q12 0 20.5 -9t8.5 -21t-8.5 -21t-20.5 -9z" />
<glyph unicode="a" d="M414 443q13 0 21.5 -8.5t8.5 -20.5v-385q0 -12 -8.5 -20.5t-21.5 -8.5q-12 0 -20.5 8.5t-8.5 20.5v193q0 34 -13 63.5t-35 51.5t-51.5 35t-63.5 13t-63.5 -13t-51.5 -35t-35 -51.5t-13 -63.5t13 -63.5t35 -51.5t51.5 -35t63.5 -13q46 0 84 23q11 7 22.5 4t17.5 -14 q7 -10 4 -22t-14 -18q-52 -32 -114 -32q-46 0 -86.5 17.5t-70.5 47.5t-47.5 70.5t-17.5 86.5t17.5 86.5t47.5 70.5t70.5 47.5t86.5 17.5q48 0 90 -19.5t73 -52.5v42q0 12 8.5 20.5t20.5 8.5z" />
<glyph unicode="b" horiz-adv-x="530" d="M220 440q45 0 85 -17.5t70 -47.5t47.5 -70t17.5 -85t-17.5 -85t-47.5 -70t-70 -47.5t-85 -17.5q-61 0 -114 32q-10 6 -13 17.5t4 22.5q6 11 17.5 13.5t22.5 -3.5q37 -24 83 -24q33 0 62.5 13t51.5 35t34.5 51.5t12.5 62.5t-12.5 62.5t-34.5 51.5t-51.5 34.5t-62.5 12.5 t-62.5 -12.5t-51.5 -34.5t-35 -51.5t-13 -62.5v-191q0 -12 -8.5 -20.5t-20.5 -8.5t-20.5 8.5t-8.5 20.5v640q0 12 8.5 20.5t20.5 8.5t20.5 -8.5t8.5 -20.5v-300q31 32 72.5 51.5t89.5 19.5z" />
<glyph unicode="c" horiz-adv-x="485" d="M386 371q8 -9 8 -21.5t-10 -20.5q-7 -7 -19 -7q-13 0 -22 9q-23 26 -54.5 40t-66.5 14q-34 0 -63 -13q-14 -6 -28 -15q-8 -5 -17 -5q-14 0 -24 13q-7 11 -5 22.5t13 18.5q9 6 18 11t20 10q42 17 86 17q47 0 89.5 -19t74.5 -54zM222 59q12 0 20.5 -8.5t8.5 -21.5 q0 -12 -8.5 -20.5t-20.5 -8.5q-46 0 -86.5 17.5t-70.5 47.5t-47.5 70.5t-17.5 86.5q0 50 22 97q6 11 17.5 15t22.5 -1t15 -16.5t-2 -22.5q-16 -37 -16 -72q0 -34 13 -63.5t35 -51.5t51.5 -35t63.5 -13z" />
<glyph unicode="d" horiz-adv-x="530" d="M220 440q48 0 89.5 -19.5t71.5 -51.5v300q0 12 8.5 20.5t21.5 8.5q12 0 20.5 -8.5t8.5 -20.5v-640q0 -12 -8.5 -20.5t-20.5 -8.5q-13 0 -21.5 8.5t-8.5 20.5v191q0 33 -12.5 62.5t-34.5 51.5t-51.5 34.5t-62.5 12.5t-62.5 -12.5t-51.5 -34.5t-35 -51.5t-13 -62.5 t13 -62.5t35 -51.5t51.5 -35t62.5 -13q45 0 83 24q11 6 22.5 3.5t17.5 -13.5q7 -11 4 -22.5t-14 -17.5q-52 -32 -113 -32q-45 0 -85 17.5t-70 47.5t-47.5 70t-17.5 85t17.5 85t47.5 70t70 47.5t85 17.5z" />
<glyph unicode="e" horiz-adv-x="532" d="M106 253q0 12 8.5 21t20.5 9h238q-18 45 -59 73.5t-92 28.5q-42 0 -78 -20t-59 -55q-18 -28 -24 -62q-1 -6 -1.5 -12.5t-0.5 -13.5q0 -34 13 -63.5t35 -51.5t51.5 -35t63.5 -13q38 0 72.5 17t57.5 48q5 7 9.5 15t8.5 16q5 11 16.5 15t22.5 -1t15.5 -16.5t-0.5 -22.5 q-11 -24 -25 -42q-32 -42 -78 -65t-99 -23q-46 0 -86.5 17.5t-70.5 47.5t-47.5 70.5t-17.5 86.5q0 18 3 36q4 23 11.5 43.5t20.5 39.5q31 49 80.5 76t106.5 27q41 0 78 -14t66 -38.5t49 -59t26 -74.5q2 -12 -5 -22t-19 -12h-12.5t-32.5 -0.5t-45.5 -0.5h-51.5h-140 q-12 0 -20.5 9t-8.5 21z" />
<glyph unicode="f" horiz-adv-x="321" d="M201 379q13 0 21.5 -9t8.5 -21q0 -13 -8.5 -21.5t-21.5 -8.5h-171q-13 0 -21.5 8.5t-8.5 21.5q0 12 8.5 21t21.5 9h4v188v3q1 26 11.5 49t28 40.5t41 27.5t49.5 11h2h23q12 0 21 -8.5t9 -21.5t-9 -21.5t-21 -8.5h-21q-31 0 -52.5 -21.5t-21.5 -51.5v-186h107zM64 276 q13 0 21.5 -8.5t8.5 -21.5v-216q0 -13 -8.5 -21.5t-21.5 -8.5q-12 0 -21 8.5t-9 21.5v216q0 13 9 21.5t21 8.5z" />
<glyph unicode="g" d="M413 443q12 0 20.5 -8.5t8.5 -20.5v-494q0 -46 -17.5 -86t-47.5 -70t-70 -47.5t-86 -17.5t-86 17.5t-70 47.5t-47.5 70t-17.5 86q0 30 7 55q3 12 13.5 18t22.5 3q11 -3 17.5 -13.5t3.5 -21.5t-4 -20.5t-1 -20.5q0 -33 13 -62.5t35 -51.5t51.5 -35t62.5 -13q34 0 63.5 13 t51.5 35t35 51.5t13 62.5v303q0 33 -13 62.5t-35 51.5t-51.5 35t-63.5 13q-33 0 -62.5 -13t-51.5 -35t-35 -51.5t-13 -62.5q0 -34 13 -63.5t35 -51.5t51.5 -35t62.5 -13q46 0 84 24q11 6 22.5 3.5t17.5 -13.5q7 -11 4 -22.5t-14 -18.5q-53 -31 -114 -31q-46 0 -86 17.5 t-70 47.5t-47.5 70t-17.5 86t17.5 86t47.5 70t70 47.5t86 17.5q48 0 90 -19.5t73 -52.5v42q0 12 8.5 20.5t20.5 8.5z" />
<glyph unicode="h" horiz-adv-x="462" d="M29 182q12 0 20.5 -8.5t8.5 -20.5v-124q0 -12 -8.5 -20.5t-20.5 -8.5t-20.5 8.5t-8.5 20.5v124q0 12 8.5 20.5t20.5 8.5zM186 444q38 0 72 -14.5t59.5 -40t40 -59.5t14.5 -72v-229q0 -12 -8.5 -20.5t-21.5 -8.5q-12 0 -20.5 8.5t-8.5 20.5v229q0 26 -10 49t-27.5 40.5 t-40.5 27.5t-49 10t-49.5 -10t-41 -27.5t-27.5 -40.5t-10 -49q0 -12 -8.5 -21.5t-20.5 -9.5t-20.5 9.5t-8.5 21.5v411q0 12 8.5 20.5t20.5 8.5t20.5 -8.5t8.5 -20.5v-276q26 23 58 37t70 14z" />
<glyph unicode="i" horiz-adv-x="175" d="M43 102q12 0 20.5 -8.5t8.5 -20.5v-43q0 -13 -8.5 -21.5t-20.5 -8.5q-13 0 -21.5 8.5t-8.5 21.5v43q0 12 8.5 20.5t21.5 8.5zM43 445q12 0 20.5 -8.5t8.5 -21.5v-228q0 -12 -8.5 -21t-20.5 -9q-13 0 -21.5 9t-8.5 21v228q0 13 8.5 21.5t21.5 8.5zM43 563q17 0 29.5 -12.5 t12.5 -30.5q0 -17 -12.5 -30t-29.5 -13q-18 0 -30.5 13t-12.5 30q0 18 12.5 30.5t30.5 12.5z" />
<glyph unicode="j" horiz-adv-x="231" d="M99 -116q12 0 20.5 -8.5t8.5 -20.5q0 -42 -28.5 -70.5t-69.5 -28.5q-13 0 -21.5 8.5t-8.5 20.5q0 13 8.5 21.5t21.5 8.5q16 0 27.5 11.5t11.5 28.5q0 12 8.5 20.5t21.5 8.5zM99 445q12 0 20.5 -8.5t8.5 -21.5v-459q0 -12 -8.5 -21t-20.5 -9q-13 0 -21.5 9t-8.5 21v459 q0 13 8.5 21.5t21.5 8.5zM99 563q17 0 29.5 -12.5t12.5 -30.5q0 -17 -12.5 -30t-29.5 -13q-18 0 -30.5 13t-12.5 30q0 18 12.5 30.5t30.5 12.5z" />
<glyph unicode="k" horiz-adv-x="385" d="M59 220v-191q0 -12 -9 -20.5t-21 -8.5t-20.5 8.5t-8.5 20.5v619v21q0 12 8.5 20.5t20.5 8.5t21 -8.5t9 -20.5v-21v-350l148 134q9 8 21 7.5t20 -9.5t7.5 -21t-9.5 -20zM284 51q10 -8 11 -20t-7 -21q-9 -10 -23 -10q-11 0 -19 7l-149 129q-9 8 -10 20t7 21t20 10t21 -7z " />
<glyph unicode="l" horiz-adv-x="220" d="M30 172q-13 0 -21.5 9t-8.5 21v466q0 13 8.5 21.5t21.5 8.5q12 0 21 -8.5t9 -21.5v-466q0 -12 -9 -21t-21 -9zM100 60q12 0 21 -9t9 -21q0 -13 -9 -21.5t-21 -8.5q-42 0 -71 29t-29 71q0 12 8.5 21t21.5 9q12 0 21 -9t9 -21q0 -17 11.5 -28.5t28.5 -11.5z" />
<glyph unicode="m" horiz-adv-x="677" d="M214 435q11 -4 17 -15t1 -22q-4 -12 -15 -17.5t-22 -1.5q-17 6 -34 6q-21 0 -39.5 -8t-32.5 -22t-22 -32.5t-8 -39.5v-254q0 -12 -8.5 -20.5t-21.5 -8.5q-12 0 -20.5 8.5t-8.5 20.5v385q0 12 8.5 20.5t20.5 8.5q13 0 21.5 -8.5t8.5 -20.5v-7q21 17 47 27t55 10 q27 0 53 -9zM425 444q33 0 62.5 -12.5t51 -34.5t34.5 -51.5t13 -62.5v-254q0 -12 -8.5 -20.5t-21.5 -8.5q-12 0 -20.5 8.5t-8.5 20.5v254q0 21 -8 39.5t-22 32.5t-32.5 22t-39.5 8q-14 0 -27 -3q-33 -9 -54.5 -36.5t-21.5 -62.5v-254q0 -12 -8.5 -20.5t-20.5 -8.5t-21 8.5 t-9 20.5v254q0 27 9 52.5t25 46t38 35.5t48 22q23 5 42 5z" />
<glyph unicode="n" horiz-adv-x="453" d="M181 444q37 0 70 -14t57.5 -39t38.5 -58t14 -70v-233q0 -12 -8.5 -20.5t-20.5 -8.5t-21 8.5t-9 20.5v233q0 25 -9.5 47.5t-26 39t-38.5 26t-47 9.5q-18 0 -36 -5q-12 -4 -22.5 2t-14.5 17q-4 12 2 22.5t18 14.5q27 8 53 8zM29 443q13 0 21.5 -8.5t8.5 -20.5v-385 q0 -12 -8.5 -20.5t-21.5 -8.5q-12 0 -20.5 8.5t-8.5 20.5v385q0 12 8.5 20.5t20.5 8.5z" />
<glyph unicode="o" d="M222 444q46 0 86.5 -17.5t70.5 -47.5t47.5 -70.5t17.5 -86.5t-17.5 -86.5t-47.5 -70.5t-70.5 -47.5t-86.5 -17.5t-86.5 17.5t-70.5 47.5t-47.5 70.5t-17.5 86.5q0 57 28 107q6 11 17.5 14.5t22.5 -2.5t14 -17.5t-2 -22.5q-21 -36 -21 -79q0 -34 13 -63.5t35 -51.5 t51.5 -35t63.5 -13t63.5 13t51.5 35t35 51.5t13 63.5t-13 63.5t-35 51.5t-51.5 35t-63.5 13q-43 0 -79 -21q-11 -6 -22.5 -2.5t-17.5 14.5t-3 22.5t14 17.5q51 28 108 28z" />
<glyph unicode="p" d="M222 444q46 0 86.5 -17.5t70.5 -47.5t47.5 -70.5t17.5 -86.5t-17.5 -86.5t-47.5 -70.5t-70.5 -47.5t-86.5 -17.5q-62 0 -115 32q-10 6 -13 17.5t4 22.5q6 11 17.5 14t22.5 -4q38 -23 84 -23q34 0 63.5 13t51.5 35t35 51.5t13 63.5t-13 63.5t-35 51.5t-51.5 35t-63.5 13 t-63.5 -13t-51.5 -35t-35 -51.5t-13 -63.5v-454q0 -12 -8.5 -20.5t-21.5 -8.5q-12 0 -20.5 8.5t-8.5 20.5v646q0 13 8.5 21.5t20.5 8.5q13 0 21.5 -8.5t8.5 -21.5v-42q31 33 73 52.5t90 19.5z" />
<glyph unicode="q" d="M222 444q49 0 91 -19.5t72 -52.5v42q0 13 8.5 21.5t21.5 8.5q12 0 20.5 -8.5t8.5 -21.5v-646q0 -12 -8.5 -20.5t-20.5 -8.5q-13 0 -21.5 8.5t-8.5 20.5v454q0 34 -13 63.5t-35 51.5t-51.5 35t-63.5 13t-63.5 -13t-51.5 -35t-35 -51.5t-13 -63.5t13 -63.5t35 -51.5 t51.5 -35t63.5 -13q46 0 84 23q11 7 22.5 4t18.5 -14q6 -11 3.5 -22.5t-13.5 -17.5q-53 -32 -115 -32q-46 0 -86.5 17.5t-70.5 47.5t-47.5 70.5t-17.5 86.5t17.5 86.5t47.5 70.5t70.5 47.5t86.5 17.5z" />
<glyph unicode="r" horiz-adv-x="301" d="M222 444q12 0 20.5 -8.5t8.5 -20.5q0 -13 -8.5 -21.5t-20.5 -8.5q-46 0 -87 -25q-5 -4 -15 -4q-17 0 -25 13q-7 11 -4.5 22.5t13.5 18.5q54 34 118 34zM29 443q13 0 21.5 -8.5t8.5 -20.5v-384q0 -13 -8.5 -21.5t-21.5 -8.5q-12 0 -20.5 8.5t-8.5 21.5v384q0 12 8.5 20.5 t20.5 8.5z" />
<glyph unicode="s" horiz-adv-x="385" d="M238 264q28 -21 42.5 -51.5t14.5 -64.5q0 -31 -11.5 -58t-31.5 -47t-47 -31.5t-57 -11.5q-47 0 -84 26q-11 7 -13 19t5 22t19 12.5t22 -4.5q22 -16 51 -16q37 0 62.5 26t25.5 63q0 20 -8.5 38.5t-25.5 31.5q-24 18 -54 18q-1 0 -1 1q-21 0 -40 8.5t-32.5 22.5t-21.5 32.5 t-8 39.5t8 40t22 33.5t33 22.5t41 8q21 0 40 -8t33 -22.5t22 -33.5t8 -40q0 -12 -8.5 -20.5t-20.5 -8.5t-20.5 8.5t-8.5 20.5q0 19 -13.5 32t-31.5 13q-19 0 -32 -13t-13 -32t13 -32t32 -13q50 0 89 -31zM62 123q4 -11 -2.5 -21.5t-17.5 -14.5q-3 -1 -8 -1q-22 0 -29 22 q-2 6 -3 16t-2 11v13q0 44 25 82q7 10 18.5 12.5t22.5 -4.5q10 -7 12.5 -18.5t-4.5 -22.5q-15 -23 -15 -49q0 -13 3 -25z" />
<glyph unicode="t" horiz-adv-x="301" d="M181 382q13 0 21.5 -8.5t8.5 -20.5q0 -13 -8.5 -21.5t-21.5 -8.5h-151q-13 0 -21.5 8.5t-8.5 21.5q0 12 8.5 20.5t21.5 8.5h21v175q0 13 8.5 21.5t20.5 8.5t21 -8.5t9 -21.5v-175h71zM149 59q12 0 21 -8.5t9 -21.5q0 -12 -9 -20.5t-21 -8.5q-41 0 -69 28t-29 69v154 q0 13 8.5 21.5t20.5 8.5t21 -8.5t9 -21.5v-153q0 -16 11 -27.5t28 -11.5z" />
<glyph unicode="u" horiz-adv-x="461" d="M231 70q11 5 22.5 0.5t16.5 -15.5t0.5 -22.5t-15.5 -16.5q-33 -16 -74 -16q-38 0 -70.5 14t-57.5 39t-39 57.5t-14 70.5v233q0 12 8.5 20.5t20.5 8.5q13 0 21.5 -8.5t8.5 -20.5v-233q0 -26 9.5 -48t26 -38.5t38.5 -26t48 -9.5q25 0 50 11zM332 444q12 0 20.5 -8.5 t8.5 -21.5v-384q0 -12 -8.5 -20.5t-20.5 -8.5t-21 8.5t-9 20.5v384q0 13 9 21.5t21 8.5z" />
<glyph unicode="v" horiz-adv-x="479" d="M174 151q5 -11 0 -22.5t-16 -16.5q-3 -2 -11 -2q-19 0 -27 17l-118 276q-5 11 0 22.5t16 16.5t22 0t16 -16zM369 442q11 -5 16 -16.5t0 -22.5l-164 -385q-8 -18 -27 -18q-4 0 -12 2q-11 5 -16 16.5t0 22.5l165 385q5 11 16 16t22 0z" />
<glyph unicode="w" horiz-adv-x="553" d="M29 103q-12 0 -20.5 8.5t-8.5 20.5v283q0 12 8.5 20.5t20.5 8.5t20.5 -8.5t8.5 -20.5v-283q0 -12 -8.5 -20.5t-20.5 -8.5zM434 444q12 0 20.5 -8.5t8.5 -20.5v-383q0 -17 -14 -25q-8 -6 -17 -6q-10 0 -17 6l-183 142l-185 -143q-8 -6 -18 -6q-14 0 -23 11q-8 10 -6 21.5 t11 19.5l202 157q9 6 19 6q9 0 18 -6l155 -120v326q0 12 8.5 20.5t20.5 8.5z" />
<glyph unicode="x" horiz-adv-x="442" d="M345 47q8 -10 6 -21.5t-11 -19.5q-9 -6 -18 -6q-14 0 -23 12l-293 385q-8 9 -6 21t11 19q10 8 21.5 6.5t19.5 -11.5l124 -162l123 162q8 10 19.5 12t21.5 -6t11.5 -19.5t-5.5 -21.5l-134 -175zM146 183q10 -7 12 -19t-6 -21l-100 -132q-9 -11 -23 -11q-9 0 -18 6 q-9 8 -11 19.5t6 21.5l100 131q7 10 19 11.5t21 -6.5z" />
<glyph unicode="y" horiz-adv-x="486" d="M69 -249q-7 0 -13 3q-11 5 -15 17t1 23l307 630q5 11 17 15t23 -1t15 -17t-2 -23l-307 -630q-4 -8 -11 -12.5t-15 -4.5zM132 122q-20 0 -28 19l-102 263q-5 11 0.5 22t16.5 16t22 -0.5t16 -16.5l102 -263q5 -11 0 -22t-17 -16q-6 -2 -10 -2z" />
<glyph unicode="z" horiz-adv-x="503" d="M118 385q-13 0 -21.5 8.5t-8.5 20.5q0 13 8.5 21.5t21.5 8.5h263q12 0 20.5 -8.5t8.5 -21.5q0 -12 -8.5 -20.5t-20.5 -8.5h-263zM393 59q12 0 21 -8.5t9 -20.5q0 -13 -9 -21.5t-21 -8.5h-363q-13 0 -21.5 8.5t-8.5 21.5t8 21l277 303q8 9 20.5 9.5t21.5 -7.5t9.5 -20.5 t-7.5 -21.5l-234 -255h298z" />
<glyph unicode="{" horiz-adv-x="338" d="M132 -184q0 -23 16 -39.5t39 -16.5q13 0 22 -8.5t9 -21.5t-9 -22t-22 -9q-24 0 -45.5 9t-37 25t-25 37.5t-9.5 45.5v290l-61 62q-9 9 -9 21q0 13 9 22l61 61v291q0 24 9.5 45.5t25 37t37 25t45.5 9.5q13 0 22 -9t9 -22t-9 -22t-22 -9q-23 0 -39 -16t-16 -39v-747z" />
<glyph unicode="|" horiz-adv-x="182" d="M31 -301q-13 0 -22 9t-9 22v919q0 13 9 22t22 9t22 -9t9 -22v-919q0 -13 -9 -22t-22 -9z" />
<glyph unicode="}" horiz-adv-x="338" d="M86 563q0 23 -16 39t-39 16q-13 0 -22 9t-9 22t9 22t22 9q24 0 45.5 -9.5t37 -25t25 -37t9.5 -45.5v-291l61 -61q9 -9 9 -22q0 -12 -9 -21l-61 -62v-290q0 -24 -9.5 -45.5t-25 -37.5t-37 -25t-45.5 -9q-13 0 -22 9t-9 22t9 21.5t22 8.5q23 0 39 16.5t16 39.5v747z" />
<glyph unicode="~" horiz-adv-x="305" d="M175 235q8 -5 9.5 -13t-3.5 -15q-12 -19 -35 -24q-3 -1 -11 -1q-17 0 -30 9l-48 32q-4 3 -11 1q-5 0 -8 -5q-7 -10 -17 -10q-7 0 -12 4q-7 5 -9 13t3 15q13 19 35 24t41 -8l49 -32q3 -2 10 -2q6 1 9 6q5 8 13 9.5t15 -3.5z" />
<glyph unicode="&#x2dc;" horiz-adv-x="305" d="M175 235q8 -5 9.5 -13t-3.5 -15q-12 -19 -35 -24q-3 -1 -11 -1q-17 0 -30 9l-48 31q-5 3 -11 2q-5 0 -8 -6q-6 -9 -17 -9q-6 0 -12 3q-7 5 -9 13t3 16q13 19 35 24t41 -8l49 -32q5 -3 10 -2q6 1 9 6q5 8 13 9.5t15 -3.5z" />
<glyph unicode="&#x2013;" horiz-adv-x="321" d="M172 193h-142q-13 0 -21.5 8.5t-8.5 21.5q0 12 8.5 21t21.5 9h142q12 0 20.5 -9t8.5 -21q0 -13 -8.5 -21.5t-20.5 -8.5z" />
<glyph unicode="&#x2014;" horiz-adv-x="411" d="M262 193h-232q-13 0 -21.5 8.5t-8.5 21.5q0 12 8.5 21t21.5 9h232q12 0 20.5 -9t8.5 -21q0 -13 -8.5 -21.5t-20.5 -8.5z" />
<glyph unicode="&#x2018;" horiz-adv-x="279" d="M77 605q32 0 54.5 -23t22.5 -55t-22.5 -54.5t-54.5 -22.5t-54.5 22.5t-22.5 54.5q0 16 6 30v1l52 110q4 8 12 11t16 -1t11.5 -12t-0.5 -16l-22 -46q1 0 1 0.5t1 0.5z" />
<glyph unicode="&#x2019;" horiz-adv-x="279" d="M77 526q-32 0 -54.5 22.5t-22.5 54.5t22.5 54.5t54.5 22.5t54.5 -22.5t22.5 -54.5q0 -16 -6 -29v-1l-51 -110q-5 -8 -13 -11.5t-16 0.5t-11 12.5t1 16.5l21 45h-2v0z" />
<glyph unicode="&#x201c;" horiz-adv-x="464" d="M262 605q16 0 30 -6t24.5 -16.5t16.5 -25t6 -30.5q0 -32 -22.5 -54.5t-54.5 -22.5t-54.5 22.5t-22.5 54.5q0 16 6 30v1l52 110q4 8 12 11t16 -1t11 -12t-1 -16l-21 -46q1 0 1 0.5t1 0.5zM77 605q32 0 54.5 -23t22.5 -55t-22.5 -54.5t-54.5 -22.5t-54.5 22.5t-22.5 54.5 q0 16 6 30v1l52 110q4 8 12 11t16 -1t11.5 -12t-0.5 -16l-22 -46q1 0 1 0.5t1 0.5z" />
<glyph unicode="&#x201d;" horiz-adv-x="464" d="M77 526q-32 0 -54.5 22.5t-22.5 54.5t22.5 54.5t54.5 22.5t54.5 -22.5t22.5 -54.5q0 -16 -6 -29v-1l-51 -110q-5 -8 -13 -11.5t-16 0.5t-11 12.5t1 16.5l21 45h-2zM262 526q-32 0 -54.5 22.5t-22.5 54.5t22.5 54.5t54.5 22.5t54.5 -22.5t22.5 -54.5q0 -16 -6 -29v-1 l-52 -110q-4 -8 -12 -11.5t-16 0.5t-11 12.5t1 16.5l21 45h-2z" />
<glyph unicode="&#x2044;" horiz-adv-x="280" />
<glyph unicode="&#x25fc;" horiz-adv-x="445" d="M0 445h445v-445h-445v445z" />
</font>
</defs>
</svg>
