<?xml version="1.0" standalone="no"?>
<!DOCTYPE svg PUBLIC "-//W3C//DTD SVG 1.1//EN" "http://www.w3.org/Graphics/SVG/1.1/DTD/svg11.dtd" >
<svg xmlns="http://www.w3.org/2000/svg">
<metadata></metadata>
<defs>
<font id="breakregular" horiz-adv-x="534" >
<font-face units-per-em="1000" ascent="750" descent="-250" />
<missing-glyph horiz-adv-x="150" />
<glyph horiz-adv-x="0" />
<glyph horiz-adv-x="0" />
<glyph unicode=" "  horiz-adv-x="150" />
<glyph unicode="&#x09;" horiz-adv-x="150" />
<glyph unicode="&#xa0;" horiz-adv-x="150" />
<glyph unicode="!" horiz-adv-x="204" d="M31 122q-7 0 -12 4.5t-5 11.5v525q0 7 5 12t12 5t12 -5t5 -12v-525q0 -7 -5 -11.5t-12 -4.5zM31 62q13 0 22 -9t9 -22t-9 -22t-22 -9t-22 9t-9 22t9 22t22 9z" />
<glyph unicode="&#x22;" horiz-adv-x="833" />
<glyph unicode="#" horiz-adv-x="800" d="M663 237q7 0 12 -5t5 -12q0 -8 -5 -13t-12 -5h-204l-26 -187q-2 -15 -17 -15h-2q-8 1 -12.5 6.5t-2.5 13.5l25 182h-205l-26 -187q-1 -7 -6 -11t-11 -4h-3q-7 1 -11.5 6.5t-2.5 13.5l25 182h-167q-7 0 -12 5t-5 13q0 7 5 12t12 5h171l28 206h-199q-7 0 -12 4.5t-5 12.5 t5 12.5t12 4.5h204l26 188q1 7 6.5 11.5t12.5 3.5q17 -3 15 -20l-25 -183h205l26 188q1 7 6.5 11.5t12.5 3.5q8 -2 12.5 -7t2.5 -13l-25 -183h167q7 0 12 -4.5t5 -12.5t-5 -12.5t-12 -4.5h-171l-28 -206h199zM428 237l28 206h-205l-28 -206h205z" />
<glyph unicode="$" horiz-adv-x="490" d="M356 239q0 -35 -12.5 -65.5t-34 -54t-50.5 -39t-63 -18.5v-44q0 -8 -5 -13t-13 -5t-13 5t-5 13v44q-34 3 -63 18.5t-50.5 39t-34 54t-12.5 65.5q0 55 31 100q4 6 11 7.5t13 -2.5q6 -5 7.5 -12t-2.5 -13q-25 -36 -25 -80q0 -27 9.5 -51.5t26.5 -43.5t40 -31.5t49 -15.5 v287q-42 7 -70.5 39.5t-28.5 77.5q0 44 28.5 76.5t71.5 40.5v44q0 8 4.5 13t12.5 5t13 -5t5 -13v-44q44 -6 73 -39t29 -78q0 -8 -5 -13t-13 -5q-7 0 -12 5t-5 13q0 34 -24.5 58.5t-58.5 24.5q-35 0 -59.5 -24.5t-24.5 -58.5q0 -35 24.5 -59.5t59.5 -24.5q36 0 68 -14.5 t56 -38.5t38 -56t14 -69zM196 97q26 3 49 15.5t40 31.5t26.5 43.5t9.5 51.5t-9.5 51.5t-26.5 43.5t-40 31.5t-49 15.5v-284z" />
<glyph unicode="%" horiz-adv-x="833" d="M504 678q7 -4 9 -10.5t-1 -12.5l-345 -646q-5 -9 -16 -9q-2 0 -8 2q-6 3 -8 10t1 13l345 646q9 14 23 7zM236 451q0 -24 -9.5 -45.5t-25.5 -37.5t-37.5 -25.5t-45.5 -9.5t-45.5 9.5t-37.5 25.5t-25.5 37.5t-9.5 45.5t9.5 45.5t25.5 37t37.5 25t45.5 9.5t45.5 -9.5 t37.5 -25t25.5 -37t9.5 -45.5zM118 367q35 0 59 24.5t24 59.5q0 34 -24 58.5t-59 24.5t-59 -24.5t-24 -58.5q0 -35 24 -59.5t59 -24.5zM513 336q24 0 45.5 -9.5t37.5 -25.5t25.5 -37.5t9.5 -45.5t-9.5 -45.5t-25.5 -37.5t-37.5 -25.5t-45.5 -9.5t-45.5 9.5t-37.5 25.5 t-25.5 37.5t-9.5 45.5t9.5 45.5t25.5 37.5t37.5 25.5t45.5 9.5zM513 135q35 0 59 24t24 59t-24 59t-59 24t-59 -24t-24 -59t24 -59t59 -24z" />
<glyph unicode="&#x26;" horiz-adv-x="615" d="M486 438q6 -29 -10.5 -54.5t-45.5 -31.5l-27 -6q39 -56 39 -125q0 -46 -17.5 -86t-47.5 -70t-70 -47.5t-86 -17.5t-86 17.5t-70 47.5t-47.5 70t-17.5 86q0 56 25.5 104t71.5 79l99 66q-35 8 -58.5 36.5t-23.5 66.5q0 22 8.5 41.5t23 34t34 23t41.5 8.5t41.5 -8.5t34 -23 t23 -34t8.5 -41.5q0 -28 -13 -51t-35 -37l-163 -109q-39 -26 -60.5 -67t-21.5 -88q0 -39 14.5 -72.5t40 -59t59 -40t72.5 -14.5t73 14.5t59.5 40t40 59t14.5 72.5q0 66 -42 117l-28 -6q-14 -3 -24 -16q-8 -14 -5 -29q2 -7 -2 -12.5t-11 -7.5q-2 -1 -4 -1q-14 0 -17 14 q-6 29 10.5 54.5t45.5 31.5l92 20q15 3 23.5 16t5.5 29q-2 7 2 12.5t11 7.5t13 -2t8 -11zM149 573q0 -29 21 -50.5t51 -21.5t51 21.5t21 50.5q0 30 -21 51t-51 21t-51 -21t-21 -51z" />
<glyph unicode="(" horiz-adv-x="373" d="M227 648q-95 -95 -142.5 -214.5t-47.5 -244t47.5 -244.5t142.5 -215q12 -12 0 -26q-7 -5 -13 -5q-8 0 -13 5q-67 67 -111.5 146.5t-67 165t-22.5 174t22.5 174t67 165t111.5 146.5q12 12 26 0q12 -14 0 -27z" />
<glyph unicode=")" horiz-adv-x="373" d="M5 648q-12 13 0 27q14 12 26 0q67 -67 111.5 -146.5t67 -165t22.5 -174t-22.5 -174t-67 -165t-111.5 -146.5q-5 -5 -13 -5q-6 0 -13 5q-12 14 0 26q95 95 142.5 215t47.5 244.5t-47.5 244t-142.5 214.5z" />
<glyph unicode="*" horiz-adv-x="356" d="M221 580q15 0 15 -15q0 -16 -15 -16h-74l49 -75q4 -5 2.5 -11.5t-6.5 -10.5q-6 -2 -9 -2q-9 0 -13 7l-52 80l-52 -80q-4 -7 -13 -7q-4 0 -8 2q-6 4 -7.5 10.5t2.5 11.5l49 75h-73q-16 0 -16 16q0 15 16 15h73l-49 76q-4 5 -2.5 11.5t7.5 9.5q5 4 11 2.5t10 -6.5l52 -80 l52 80q4 5 10.5 6.5t11.5 -2.5q5 -3 6.5 -9.5t-2.5 -11.5l-49 -76h74v0z" />
<glyph unicode="+" horiz-adv-x="587" d="M451 240q8 0 13 -5t5 -13t-5 -13t-13 -5h-199v-186q0 -8 -5 -13t-13 -5t-13 5t-5 13v186h-199q-8 0 -13 5t-5 13t5 13t13 5h199v186q0 8 5 13t13 5t13 -5t5 -13v-186h199v0z" />
<glyph unicode="," horiz-adv-x="217" d="M41 82q17 0 29 -12t12 -29q0 -7 -4 -17l-31 -66q-3 -6 -9 -6q-1 0 -1.5 0.5t-1.5 0.5q-9 4 -5 12l17 36q-2 0 -3 -0.5t-3 -0.5q-17 0 -29 12t-12 29t12 29t29 12z" />
<glyph unicode="-" horiz-adv-x="321" d="M182 253q8 0 13.5 -6t5.5 -14q0 -19 -19 -19h-163q-8 0 -13.5 5.5t-5.5 13.5t5.5 14t13.5 6h163v0z" />
<glyph unicode="." horiz-adv-x="217" d="M41 81q17 0 29 -12t12 -29t-12 -29.5t-29 -12.5t-29 12.5t-12 29.5t12 29t29 12z" />
<glyph unicode="/" horiz-adv-x="435" d="M290 679q15 -7 10 -23l-267 -646q-5 -10 -16 -10q-4 0 -7 1q-6 3 -8.5 9.5t-0.5 12.5l267 646q3 7 9.5 9.5t12.5 0.5z" />
<glyph unicode="0" horiz-adv-x="553" d="M422 213q0 -44 -16 -82.5t-44.5 -67.5t-66.5 -46t-82 -17h-2q-43 0 -81.5 16.5t-67 44.5t-45.5 66t-17 81v1v258q0 8 5.5 13t13.5 5t13 -5t5 -13v-258q1 -36 15 -67t37.5 -54.5t54.5 -37t67 -13.5h2q36 1 67.5 15t54.5 38t36.5 55.5t12.5 67.5v258q0 35 -13.5 66.5 t-38.5 55.5q-24 24 -55 36.5t-66 12.5h-2q-60 0 -108 -39q-8 -7 -15 -14.5t-14 -15.5q-4 -5 -7 -10.5t-6 -10.5q-4 -7 -11.5 -9t-14.5 1q-7 4 -9 11.5t2 14.5t7.5 13.5t8.5 12.5q14 18 35 36q28 23 62 35t69 13q88 0 150 -60q31 -29 47 -67.5t17 -81.5v-258z" />
<glyph unicode="1" horiz-adv-x="313" d="M154 680q8 0 13.5 -5.5t5.5 -13.5v-642q0 -8 -5.5 -13.5t-13.5 -5.5t-13.5 5.5t-5.5 13.5v642q0 8 5.5 13.5t13.5 5.5zM50 584q5 5 13 5t14 -5q5 -6 5 -14t-5 -13l-45 -44q-5 -6 -13 -6t-14 6q-5 5 -5 13t5 13z" />
<glyph unicode="2" horiz-adv-x="520" d="M103 371q-6 0 -13 5q-26 26 -40.5 58.5t-14.5 69.5q0 36 14 68t38 56t56 38t69 14q36 0 68 -14t56 -38t38 -56t14 -68q0 -66 -44 -116l-246 -302q-6 -7 -15 -7q-7 0 -12 4q-6 5 -6.5 13t4.5 14l246 301v1q17 19 26 42.5t9 49.5q0 28 -11 53.5t-29.5 44t-44 29.5t-53.5 11 q-29 0 -54.5 -11t-44 -29.5t-29.5 -44t-11 -53.5q0 -29 11 -54.5t32 -45.5q13 -13 1 -27q-6 -6 -14 -6zM346 38q8 0 13.5 -5.5t5.5 -13.5q0 -19 -19 -19h-327q-19 0 -19 19q0 8 5.5 13.5t13.5 5.5h327z" />
<glyph unicode="3" horiz-adv-x="519" d="M194 387q40 0 75 -15.5t61 -41.5t41.5 -61t15.5 -75t-15.5 -75.5t-41.5 -61.5t-61 -41.5t-75 -15.5t-75.5 15.5t-61.5 41.5t-41.5 61.5t-15.5 75.5q0 61 35 110q4 7 11.5 8.5t14.5 -3.5q6 -5 7.5 -12.5t-3.5 -13.5q-27 -41 -27 -89q0 -32 12.5 -60.5t33.5 -49.5 t49.5 -33.5t60.5 -12.5t60.5 12.5t49.5 33.5t33.5 49.5t12.5 60.5t-12.5 60.5t-33.5 49.5t-49.5 33.5t-60.5 12.5q-19 0 -19 19q0 8 5.5 13t13.5 5zM89 411q-6 -5 -13.5 -3.5t-12.5 7.5q-34 43 -34 100q0 34 13 64t35.5 52.5t52.5 35.5t64 13t64 -13t52.5 -35.5t35.5 -52.5 t13 -64q0 -61 -41 -108q-4 -7 -14 -7q-7 0 -12 5q-6 5 -6.5 13t4.5 13q31 37 31 84q0 26 -10 49t-27.5 40.5t-40.5 27.5t-49 10t-49.5 -10t-41 -27.5t-27.5 -40.5t-10 -49q0 -44 27 -77q10 -15 -4 -27z" />
<glyph unicode="4" horiz-adv-x="502" d="M346 169q8 0 13.5 -5.5t5.5 -13.5t-5.5 -13t-13.5 -5h-39v-113q0 -19 -19 -19q-8 0 -13.5 5.5t-5.5 13.5v113h-250q-8 0 -13.5 5t-5.5 13q0 19 19 19h250v417l-191 -364q-5 -10 -17 -10q-4 0 -8 2q-8 4 -10 11.5t2 14.5l226 430q4 8 15 10h5q16 -4 16 -19v-492h39v0z" />
<glyph unicode="5" horiz-adv-x="555" d="M212 425q44 0 82.5 -17t67.5 -46t46 -67.5t17 -82.5t-17 -82.5t-46 -67.5t-67.5 -45.5t-82.5 -16.5t-82.5 16.5t-67.5 45.5t-45.5 67.5t-16.5 82.5q0 19 19 19q8 0 13.5 -5.5t5.5 -13.5q0 -36 13.5 -67.5t37.5 -55.5t55.5 -37.5t67.5 -13.5t68 13.5t56 37.5t37.5 55.5 t13.5 67.5t-13.5 68t-37.5 55.5t-56 37.5t-68 14q-37 0 -70.5 -15t-58.5 -42q-5 -6 -13 -6t-13 5q-6 5 -6.5 13t5.5 13q30 33 70.5 51.5t85.5 18.5zM85 428q-8 2 -12.5 8t-2.5 14l38 213q1 5 7 11l1 1q1 0 1 0.5t1 0.5q6 4 11 4h195q8 0 13.5 -5.5t5.5 -13.5t-5.5 -13.5 t-13.5 -5.5h-181l-36 -199q-3 -15 -19 -15h-3z" />
<glyph unicode="6" horiz-adv-x="555" d="M168 449q-8 0 -12 4q-6 5 -7 12.5t4 13.5l152 194q5 6 12.5 7t13.5 -4q14 -11 4 -27l-153 -193q-4 -7 -14 -7zM212 425q44 0 82.5 -17t67.5 -46t46 -67.5t17 -82.5t-17 -82.5t-46 -67.5t-67.5 -45.5t-82.5 -16.5t-82.5 16.5t-67.5 45.5t-45.5 67.5t-16.5 82.5t16.5 82.5 t45.5 67.5t67.5 46t82.5 17zM212 38q36 0 68 13.5t56 37.5t37.5 55.5t13.5 67.5t-13.5 68t-37.5 56t-56 37.5t-68 13.5t-67.5 -13.5t-55.5 -37.5t-37.5 -56t-13.5 -68t13.5 -67.5t37.5 -55.5t55.5 -37.5t67.5 -13.5z" />
<glyph unicode="7" horiz-adv-x="474" d="M322 680q8 0 13.5 -5.5t5.5 -13.5t-5.5 -13.5t-13.5 -5.5h-303q-8 0 -13.5 5.5t-5.5 13.5t5.5 13.5t13.5 5.5h303zM302 597q8 -2 11.5 -8.5t1.5 -14.5l-168 -561q-2 -6 -7 -9.5t-11 -3.5q-4 0 -5 1q-8 2 -11.5 8.5t-1.5 14.5l168 561q2 8 8.5 11t14.5 1z" />
<glyph unicode="8" horiz-adv-x="548" d="M288 402q58 -23 94 -75t36 -118q0 -43 -16.5 -81t-45 -66.5t-66.5 -45t-81 -16.5t-81 16.5t-66.5 45t-45 66.5t-16.5 81q0 45 18.5 86.5t52.5 70.5q6 5 14 4.5t13 -5.5q5 -6 4.5 -14t-6.5 -13q-28 -25 -43 -58.5t-15 -70.5q0 -35 13.5 -66.5t36.5 -54.5t54.5 -36.5 t66.5 -13.5t66 13.5t54.5 36.5t37 54.5t13.5 66.5q0 34 -12.5 64.5t-35 54t-52.5 37t-64 15.5h-7q-31 0 -58.5 12t-47.5 32t-32 47.5t-12 58.5t12 58.5t32 47.5t47.5 32t58.5 12t58.5 -12t47.5 -32t32 -47.5t12 -58.5q0 -41 -19.5 -74.5t-51.5 -53.5zM97 530q0 -23 9 -43.5 t24 -35.5t35.5 -24t43.5 -9t43.5 9t35.5 24t24 35.5t9 43.5t-9 43.5t-24 35.5t-35.5 24t-43.5 9t-43.5 -9t-35.5 -24t-24 -35.5t-9 -43.5z" />
<glyph unicode="9" horiz-adv-x="555" d="M242 224q5 6 12.5 7t14.5 -4q6 -5 7 -12.5t-4 -13.5l-152 -194q-6 -7 -15 -7q-7 0 -12 4q-6 5 -7 12.5t4 13.5zM212 680q44 0 82.5 -16.5t67.5 -45.5t46 -67.5t17 -82.5t-17 -82.5t-46 -67.5t-67.5 -46t-82.5 -17t-82.5 17t-67.5 46t-45.5 67.5t-16.5 82.5t16.5 82.5 t45.5 67.5t67.5 45.5t82.5 16.5zM212 293q36 0 68 13.5t56 37.5t37.5 56t13.5 68t-13.5 67.5t-37.5 55.5t-56 37.5t-68 13.5t-67.5 -13.5t-55.5 -37.5t-37.5 -55.5t-13.5 -67.5t13.5 -68t37.5 -56t55.5 -37.5t67.5 -13.5z" />
<glyph unicode=":" horiz-adv-x="217" d="M41 362q-17 0 -29 12t-12 29t12 29t29 12t29 -12t12 -29t-12 -29t-29 -12zM41 81q17 0 29 -12t12 -29t-12 -29.5t-29 -12.5t-29 12.5t-12 29.5t12 29t29 12z" />
<glyph unicode=";" horiz-adv-x="217" d="M41 362q-17 0 -29 12t-12 29t12 29t29 12t29 -12t12 -29t-12 -29t-29 -12zM41 82q17 0 29 -12t12 -29q0 -7 -4 -17l-31 -66q-3 -6 -9 -6q-1 0 -1.5 0.5t-1.5 0.5q-9 4 -5 12l17 36q-2 0 -3 -0.5t-3 -0.5q-17 0 -29 12t-12 29t12 29t29 12z" />
<glyph unicode="&#x3c;" horiz-adv-x="372" d="M234 31q5 -5 5 -13t-5 -13t-12 -5q-6 0 -13 5l-204 204q-5 7 -5 13t5 13l204 204q5 5 12.5 5t12.5 -5t5 -13t-5 -13l-191 -191z" />
<glyph unicode="=" horiz-adv-x="555" d="M417 181q8 0 13 -5t5 -13t-5 -13t-13 -5h-399q-8 0 -13 5t-5 13t5 13t13 5h399zM18 271q-8 0 -13 5.5t-5 12.5q0 8 5 13.5t13 5.5h399q8 0 13 -5.5t5 -13.5q0 -7 -5 -12.5t-13 -5.5h-399z" />
<glyph unicode="&#x3e;" horiz-adv-x="372" d="M5 413q-5 5 -5 13t5 13q7 5 13 5t13 -5l203 -204q6 -6 6 -13t-6 -13l-203 -204q-5 -5 -13 -5t-13 5t-5 13t5 13l192 191z" />
<glyph unicode="?" horiz-adv-x="493" d="M181 65q13 0 22.5 -9.5t9.5 -23.5q0 -13 -9.5 -22.5t-22.5 -9.5q-14 0 -23.5 9.5t-9.5 22.5q0 14 9.5 23.5t23.5 9.5zM181 680q37 0 70 -14t57.5 -38.5t38.5 -57.5t14 -70q0 -35 -12.5 -66.5t-34.5 -55.5t-52 -39.5t-64 -18.5v-183q0 -7 -5 -12t-12 -5q-8 0 -13 5t-5 12 v199q0 8 5 13t13 5q30 0 56.5 11.5t46.5 31t31.5 46.5t11.5 57t-11.5 56.5t-31.5 46t-46.5 31t-56.5 11.5t-57 -11.5t-46.5 -31t-31 -46t-11.5 -56.5q0 -8 -5 -13t-13 -5q-7 0 -12 5t-5 13q0 37 14 70t39 57.5t57.5 38.5t70.5 14z" />
<glyph unicode="@" horiz-adv-x="800" d="M680 340q0 -96 -50 -178h-1q-23 -36 -67 -44q-5 -2 -10 -2h-10q-32 0 -59 18q-20 14 -31 33t-14 41q-20 -15 -45 -23.5t-53 -8.5q-34 0 -64 13t-52 35t-35 52t-13 64t13 64t35 52t52 35t64 13t64 -13t52 -35t35 -52t13 -64q0 -23 -6 -44.5t-17 -39.5l-1 -1 q-13 -24 -6.5 -50.5t29.5 -41.5q24 -17 52 -11q29 5 45 29q23 36 34 76.5t11 82.5q0 63 -24 118.5t-65.5 97t-97 65.5t-118.5 24t-118.5 -24t-97 -65.5t-65.5 -97t-24 -118.5t24 -118.5t65.5 -97t97 -65.5t118.5 -24q8 0 12.5 -5t4.5 -13q0 -7 -4.5 -12t-12.5 -5 q-71 0 -132.5 26.5t-108 73t-73 108t-26.5 132.5q0 70 26.5 132t73 108t108 73t132.5 27q70 0 132 -27t108 -73t73 -108t27 -132zM340 211q27 0 50.5 10t41 27.5t27.5 41t10 50.5t-10 50.5t-27.5 41t-41 27.5t-50.5 10t-50.5 -10t-41 -27.5t-27.5 -41t-10 -50.5t10 -50.5 t27.5 -41t41 -27.5t50.5 -10z" />
<glyph unicode="A" horiz-adv-x="675" d="M610 24q3 -6 0.5 -13t-9.5 -10q-2 -1 -7 -1q-11 0 -16 10l-272 612l-150 -337h167q8 0 13 -5t5 -13q0 -7 -5 -12t-13 -5h-183l-107 -240q-5 -10 -16 -10q-4 0 -7 1q-7 3 -9 10t0 13l112 250l176 396q5 10 17 10q11 0 16 -10l288 -646v0z" />
<glyph unicode="B" horiz-adv-x="564" d="M236 455q46 -2 86 -20t70 -49t47 -71.5t17 -86.5q0 -47 -18 -88.5t-49 -72.5t-72.5 -49t-88.5 -18h-211q-7 0 -12 5t-5 12v507q0 8 5 12.5t12 4.5q8 0 13 -4.5t5 -12.5v-176q23 37 57.5 63t77.5 37q29 12 46 37.5t17 57.5q0 21 -8 39.5t-22 32.5t-32.5 22t-39.5 8h-114 q-7 0 -12 5t-5 13q0 7 5 12t12 5h117h1q27 -1 51.5 -12t42.5 -29.5t28.5 -43t10.5 -52.5q0 -50 -32 -88zM228 35q40 0 75 15t61 41.5t41.5 61.5t15.5 75t-15.5 75t-41.5 61t-61 41.5t-75 15.5t-75 -15.5t-61.5 -41.5t-41.5 -61t-15 -75v-193h193z" />
<glyph unicode="C" horiz-adv-x="663" d="M552 606q5 -5 6 -12t-4 -12q-4 -7 -13 -7q-7 0 -11 4q-83 66 -190 66q-94 0 -170 -52q-6 -4 -13 -2.5t-11 7.5q-5 6 -3.5 13t7.5 11q42 29 90.5 43.5t99.5 14.5q59 0 112.5 -19t99.5 -55zM340 35q8 0 12.5 -5t4.5 -13q0 -7 -4.5 -12t-12.5 -5q-71 0 -132.5 26.5t-108 73 t-73 108t-26.5 132.5q0 69 28 136q7 16 23 9t9 -23q-13 -29 -19 -59.5t-6 -62.5q0 -63 24 -118.5t65.5 -97t97 -65.5t118.5 -24z" />
<glyph unicode="D" horiz-adv-x="594" d="M146 680q70 0 132.5 -27t108.5 -73t73 -108.5t27 -132.5q0 -60 -20.5 -115.5t-56.5 -99.5t-85.5 -75.5t-107.5 -43.5h-1q-25 -5 -47 -5h-152q-7 0 -12 5t-5 12q0 8 5 13t12 5h152q10 0 20 1t20 3q53 11 97.5 39t77 68t50.5 89.5t18 103.5q0 63 -24 119t-65.5 97.5 t-97.5 65.5t-119 24q-23 0 -43 -9t-35 -24t-24 -35t-9 -43v-381q0 -8 -5 -13t-13 -5q-7 0 -12 5t-5 13v381q0 30 11.5 56.5t31.5 46.5t46.5 31.5t56.5 11.5z" />
<glyph unicode="E" horiz-adv-x="474" d="M345 35q7 0 12 -5t5 -13q0 -7 -5 -12t-12 -5h-224h-1q-24 0 -45.5 9.5t-38 25.5t-26 37.5t-10.5 45.5v1v414q0 7 5 12t12 5q8 0 13 -5t5 -12v-176h146q17 0 17 -17t-17 -17h-146v-201q0 -36 25.5 -61.5t61.5 -25.5h223zM17 645q-7 0 -12 5t-5 13q0 7 5 12t12 5h291 q8 0 12.5 -5t4.5 -12q0 -8 -4.5 -13t-12.5 -5h-291z" />
<glyph unicode="F" horiz-adv-x="470" d="M17 236q8 0 13 -5t5 -12v-202q0 -7 -5 -12t-13 -5q-7 0 -12 5t-5 12v202q0 7 5 12t12 5zM379 680q8 0 13 -5t5 -12q0 -8 -5 -13t-13 -5h-257q-36 0 -61.5 -25.5t-25.5 -61.5v-201h181q7 0 12 -4.5t5 -12.5t-5 -12.5t-12 -4.5h-199q-7 0 -12 4.5t-5 12.5v221v1 q1 24 10.5 45.5t26 37.5t38 25.5t45.5 9.5h1h258z" />
<glyph unicode="G" horiz-adv-x="643" d="M520 165q8 0 13 -5t5 -12v-74v-1q0 -10 -8 -15q-34 -23 -70 -36q-33 -13 -70 -18q-12 -2 -24.5 -3t-25.5 -1q-71 0 -132.5 26.5t-108 73t-73 108t-26.5 132.5q0 70 26.5 132t73 108t108 73t132.5 27q103 0 189 -57q6 -4 7.5 -11t-3.5 -13q-4 -6 -11 -7.5t-13 2.5 q-75 51 -169 51q-63 0 -118.5 -24t-97 -65.5t-65.5 -97t-24 -118.5t24 -118.5t65.5 -97t97 -65.5t118.5 -24q22 0 45 3q17 2 32.5 6.5t30.5 9.5q14 6 28 13t27 15v66q0 7 5 12t12 5zM520 304q8 0 13 -5t5 -13q0 -7 -5 -12t-13 -5h-80q-8 0 -12.5 5t-4.5 12q0 8 4.5 13 t12.5 5h80z" />
<glyph unicode="H" horiz-adv-x="596" d="M472 680q7 0 12 -5t5 -12v-646q0 -7 -5 -12t-12 -5q-8 0 -13 5t-5 12v646q0 7 5 12t13 5zM333 357q7 0 12 -4.5t5 -12.5t-5 -12.5t-12 -4.5h-298v-306q0 -7 -5 -12t-13 -5q-7 0 -12 5t-5 12v646q0 7 5 12t12 5q8 0 13 -5t5 -12v-306h298z" />
<glyph unicode="I" horiz-adv-x="487" d="M35 645q-7 0 -12 5t-5 13q0 7 5 12t12 5h306q7 0 12 -5t5 -12q0 -8 -5 -13t-12 -5h-306zM359 35q8 0 12.5 -5t4.5 -13q0 -7 -4.5 -12t-12.5 -5h-342q-7 0 -12 5t-5 12q0 8 5 13t12 5h154v489q0 8 5 12.5t12 4.5q17 0 17 -17v-489h154z" />
<glyph unicode="J" horiz-adv-x="471" d="M342 197q8 0 13 -5t5 -12q0 -37 -14 -70t-38.5 -57.5t-57.5 -38.5t-70 -14t-70 14t-57.5 38.5t-38.5 57.5t-14 70q0 7 5 12t12 5q8 0 12.5 -5t4.5 -12q0 -30 11.5 -56.5t31.5 -46.5t46.5 -31.5t56.5 -11.5t56.5 11.5t46 31.5t31 46.5t11.5 56.5q0 7 5 12t12 5zM342 680 q8 0 13 -5t5 -12v-345q0 -8 -5 -12.5t-13 -4.5q-7 0 -12 4.5t-5 12.5v345q0 7 5 12t12 5z" />
<glyph unicode="K" horiz-adv-x="549" d="M434 675q5 -5 5.5 -12t-4.5 -12l-400 -430v-204q0 -7 -5 -12t-13 -5q-7 0 -12 5t-5 12v211v430q0 8 5 13t12 5q8 0 13 -5t5 -13v-386l375 402q5 5 12 5.5t12 -4.5zM407 29q11 -12 -1 -24q-5 -5 -12 -5t-12 5l-190 196q-5 5 -5 12t5 12t12.5 5t12.5 -5z" />
<glyph unicode="L" horiz-adv-x="512" d="M17 249q-7 0 -12 4.5t-5 12.5v397q0 7 5 12t12 5q8 0 13 -5t5 -12v-397q0 -8 -5 -12.5t-13 -4.5zM384 35q8 0 12.5 -5t4.5 -13q0 -7 -4.5 -12t-12.5 -5h-256h-1q-26 0 -49.5 10t-40.5 27t-27 40.5t-10 49.5q0 8 5 13t12 5q8 0 13 -5t5 -13q0 -19 7 -36t19.5 -29.5 t29.5 -19.5t36 -7h257z" />
<glyph unicode="M" horiz-adv-x="697" d="M17 524q8 0 13 -5t5 -12v-490q0 -7 -5 -12t-13 -5q-7 0 -12 5t-5 12v490q0 7 5 12t12 5zM576 679q8 0 13 -5t5 -12v-645q0 -7 -5 -12t-13 -5q-7 0 -12 5t-5 12v602l-249 -262q-5 -5 -13 -5q-9 0 -13 5l-279 294q-5 5 -5 12t5 12t12.5 5t12.5 -5l267 -281l266 280 q7 5 13 5z" />
<glyph unicode="N" horiz-adv-x="609" d="M17 680q8 0 13 -5t5 -12v-646q0 -7 -5 -12t-13 -5q-7 0 -12 5t-5 12v646q0 7 5 12t12 5zM485 680q8 0 12.5 -5t4.5 -12v-644q0 -17 -17 -17q-6 0 -10 2.5t-6 4.5l-346 485q-5 6 -3.5 13t7.5 12q5 4 12 2.5t12 -6.5l317 -444v592q0 7 5 12t12 5z" />
<glyph unicode="O" horiz-adv-x="770" d="M340 680q70 0 132 -27t108 -73t73 -108t27 -132q0 -71 -27 -132.5t-73 -108t-108 -73t-132 -26.5q-71 0 -132.5 26.5t-108 73t-73 108t-26.5 132.5q0 44 11 85.5t31 79.5q9 14 24 6q6 -3 8 -10t-1 -13q-19 -34 -29 -71.5t-10 -76.5q0 -63 24 -119t65.5 -97.5t97.5 -65.5 t119 -24t118.5 24t97 65.5t65.5 97.5t24 119t-24 118.5t-65.5 97t-97 65.5t-118.5 24q-80 0 -148 -38q-6 -3 -13 -1t-11 8q-3 6 -1 13t8 10q77 43 165 43z" />
<glyph unicode="P" horiz-adv-x="629" d="M261 680q54 0 101.5 -20.5t83 -56t56 -83t20.5 -101.5t-20.5 -102t-56 -83.5t-83 -56t-101.5 -20.5q-73 0 -132.5 36t-93.5 95v-271q0 -7 -5 -12t-13 -5q-7 0 -12 5t-5 12v507q0 7 5 12t12 5q8 0 13 -5t5 -12v-112q1 -46 19 -86t49 -70t71.5 -47t86.5 -17q47 0 88.5 17.5 t72 48.5t48.5 72.5t18 88.5t-18 88t-48.5 72t-72 48.5t-88.5 17.5h-242q-8 0 -12.5 5t-4.5 13q0 7 4.5 12t12.5 5h242v0z" />
<glyph unicode="Q" horiz-adv-x="840" d="M757 32q5 -5 5.5 -12t-4.5 -12q-5 -6 -12 -6q-8 0 -12 4l-198 175q-5 5 -5.5 12.5t4.5 12.5t12 5.5t12 -4.5l37 -33q21 32 33.5 68t15.5 74q5 62 -14 119t-59 104t-93.5 74t-114.5 32q-62 5 -119 -14t-104 -59t-74 -93.5t-32 -115.5q-5 -61 14 -118t59 -104t93.5 -74 t114.5 -32q39 -3 77.5 4t73.5 23q7 3 13.5 0.5t9.5 -8.5q7 -16 -9 -23q-65 -31 -141 -31h-13t-13 1q-69 5 -128 35.5t-104 82.5t-65.5 115.5t-15.5 131.5q5 69 35.5 128t82.5 104t115.5 65.5t131.5 15.5q69 -5 128 -35.5t104 -82.5t65.5 -115.5t15.5 -131.5 q-3 -44 -17.5 -84.5t-37.5 -76.5l-2 -2l135 -119v0z" />
<glyph unicode="R" horiz-adv-x="628" d="M522 419q0 -54 -20.5 -101.5t-56 -83t-83 -56t-101.5 -20.5h-1l160 -124q6 -5 7 -12t-4 -12q-4 -7 -14 -7q-6 0 -10 4l-364 281v-271q0 -7 -5 -12t-13 -5q-7 0 -12 5t-5 12v507q0 8 5 12.5t12 4.5q8 0 13 -4.5t5 -12.5v-192l146 -113q16 -13 37 -20t43 -7q47 0 88 18 t72 48.5t48.5 72t17.5 88.5t-17.5 88t-48.5 72t-72 48.5t-88 17.5h-244q-7 0 -12 5t-5 13q0 7 5 12t12 5h244q54 0 101.5 -20.5t83 -56t56 -83t20.5 -101.5z" />
<glyph unicode="S" horiz-adv-x="540" d="M36 335q10 14 24 5q6 -4 7.5 -11t-2.5 -13q-31 -47 -31 -101q0 -10 1 -15q0 -16 -16 -18h-1q-7 0 -12 4.5t-5 11.5q-1 4 -1 8v9q0 32 9.5 63t26.5 57zM348 385q39 -31 61 -75t22 -95q0 -44 -17 -83.5t-46.5 -68.5t-68.5 -46t-84 -17q-67 0 -122 38q-6 4 -7.5 11t3.5 13 q4 6 10.5 7t12.5 -3q47 -32 103 -32q37 0 70.5 14t58 39t39 57.5t14.5 70.5q0 42 -18.5 79.5t-51.5 63.5q-50 39 -112 39q-29 0 -54.5 11.5t-44.5 30.5t-30 44.5t-11 54.5t11 55t30.5 45.5t45.5 30.5t55 11t55 -11t45.5 -30.5t30.5 -45.5t11 -55q0 -7 -5 -12t-12 -5 q-8 0 -12.5 5t-4.5 12q0 22 -8.5 42t-23.5 34.5t-34.5 23t-41.5 8.5t-41.5 -8.5t-34.5 -23t-23.5 -34.5t-8.5 -42t8.5 -41.5t23.5 -34t34.5 -23t41.5 -8.5q73 -2 131 -46z" />
<glyph unicode="T" horiz-adv-x="671" d="M570 680q7 0 12 -5t5 -12q0 -8 -5 -13t-12 -5h-553q-7 0 -12 5t-5 13q0 7 5 12t12 5h553zM294 542q7 0 12 -5t5 -13v-507q0 -7 -5 -12t-12 -5q-8 0 -13 5t-5 12v507q0 8 5 13t13 5z" />
<glyph unicode="U" horiz-adv-x="570" d="M142 35q7 0 12 -5t5 -13q0 -7 -5 -12t-12 -5q-29 0 -55 11t-45.5 30.5t-30.5 45.5t-11 55v521q0 7 5 12t12 5q8 0 13 -5t5 -12v-521q0 -22 8.5 -41.5t23 -34t34 -23t41.5 -8.5zM445 680q7 0 12 -5t5 -12v-521q0 -29 -11 -55t-30.5 -45.5t-45.5 -30.5t-55 -11q-7 0 -12 5 t-5 12q0 8 5 13t12 5q22 0 41.5 8.5t34.5 23t23.5 34t8.5 41.5v521q0 7 4.5 12t12.5 5z" />
<glyph unicode="V" horiz-adv-x="679" d="M226 156q-11 0 -16 10l-209 490q-5 16 10 23q6 2 13 -0.5t9 -9.5l209 -489q7 -16 -9 -23q-2 -1 -7 -1zM292 0q-4 0 -6 1q-15 7 -10 23l275 645q7 15 23 10q16 -7 9 -23l-275 -645q-3 -11 -16 -11z" />
<glyph unicode="W" horiz-adv-x="715" d="M17 156q-7 0 -12 5t-5 12v490q0 7 5 12t12 5q8 0 13 -5t5 -12v-490q0 -7 -5 -12t-13 -5zM613 18v-1q0 -5 -4 -11q-6 -6 -13 -6q-8 0 -12 4l-278 252l-277 -252q-4 -4 -12 -4q-7 0 -13 6q-5 5 -4 12t6 12l288 262q4 4 11 4q1 0 2 1q8 -2 12 -5l259 -236v607q0 7 5 12t13 5 q7 0 12 -5t5 -12v-645z" />
<glyph unicode="X" horiz-adv-x="629" d="M521 28q5 -6 3.5 -13t-6.5 -12q-5 -3 -11 -3q-8 0 -14 7l-489 645q-5 6 -4 13t7 11q5 5 12 4t12 -7l232 -305l231 305q5 6 12 7t13 -4q5 -4 6.5 -11t-3.5 -13l-238 -312zM163 248q5 5 12 6.5t12 -3.5q6 -4 7.5 -11t-3.5 -13l-160 -220q-4 -7 -14 -7q-6 0 -10 3 q-6 5 -7 12t3 12z" />
<glyph unicode="Y" horiz-adv-x="635" d="M521 677q6 -4 8 -10.5t-3 -13.5l-252 -405q-5 -8 -15 -8q-11 0 -15 9l-242 405q-4 6 -2 13t8 10q7 4 13.5 2.5t10.5 -8.5l227 -381l238 382q4 6 11 7.5t13 -2.5zM259 135q8 0 13 -4.5t5 -12.5v-101q0 -7 -5 -12t-13 -5q-7 0 -12 5t-5 12v101q0 8 5 12.5t12 4.5z" />
<glyph unicode="Z" horiz-adv-x="746" d="M165 646q-17 0 -17 17q0 7 4.5 12t12.5 5h441q8 0 12.5 -5t4.5 -12q0 -17 -17 -17h-441zM627 34q7 0 12 -4.5t5 -12.5q0 -7 -5 -12t-12 -5h-610q-7 0 -12 5t-5 12v1q0 9 5 14l466 505q12 12 24 1q5 -5 5.5 -12t-4.5 -12l-442 -480h573z" />
<glyph unicode="[" horiz-adv-x="299" d="M138 -265q8 0 13 -5t5 -13t-5 -13t-13 -5h-120q-8 0 -13 5t-5 13v944q0 8 5 13.5t13 5.5h120q8 0 13 -5.5t5 -13.5t-5 -13t-13 -5h-101v-908h101v0z" />
<glyph unicode="\" horiz-adv-x="435" d="M10 679q16 5 23 -10l267 -646q2 -6 -0.5 -12.5t-9.5 -9.5q-2 -1 -6 -1q-11 0 -16 10l-267 646q-5 16 9 23z" />
<glyph unicode="]" horiz-adv-x="299" d="M18 -265h102v908h-102q-8 0 -13 5t-5 13t5 13.5t13 5.5h120q8 0 13 -5.5t5 -13.5v-944q0 -8 -5 -13t-13 -5h-120q-8 0 -13 5t-5 13t5 13t13 5z" />
<glyph unicode="^" horiz-adv-x="411" d="M293 470q7 -11 -4 -18q-4 -2 -7 -2q-7 0 -10 6l-124 189l-124 -189q-5 -6 -11 -6q-3 0 -7 2q-11 7 -4 18l134 204q3 6 10 6h3q7 0 10 -6l134 -204v0z" />
<glyph unicode="_" horiz-adv-x="508" d="M370 -133q8 0 13 -5t5 -13t-5 -13.5t-13 -5.5h-352q-8 0 -13 5.5t-5 13.5t5 13t13 5h352v0z" />
<glyph unicode="a" d="M426 443q8 0 13 -5t5 -13v-407q0 -8 -5 -13t-13 -5t-13 5t-5 13v204q0 39 -14.5 72.5t-40 59t-59 40t-72.5 14.5t-72.5 -14.5t-59 -40t-40 -59t-14.5 -72.5t14.5 -72.5t40 -59t59 -40t72.5 -14.5q52 0 96 27q6 4 13 2t11 -9q5 -6 3 -13t-9 -11q-52 -32 -114 -32 q-46 0 -86.5 17.5t-70.5 47.5t-47.5 70.5t-17.5 86.5t17.5 86.5t47.5 70.5t70.5 47.5t86.5 17.5q59 0 108 -28t78 -74v83q0 8 5 13t13 5z" />
<glyph unicode="b" horiz-adv-x="530" d="M221 442q46 0 86 -17.5t70 -47.5t47.5 -70t17.5 -86t-17.5 -86t-47.5 -70t-70 -47.5t-86 -17.5q-61 0 -114 32q-6 4 -8 11t2 14q4 6 11 8t13 -2q43 -27 96 -27q39 0 72.5 14.5t59 39.5t40 59t14.5 72q0 39 -14.5 72.5t-40 59t-59 40t-72.5 14.5q-38 0 -72 -14.5t-59 -40 t-39.5 -59t-14.5 -72.5v-204q0 -7 -5.5 -12t-13.5 -5q-7 0 -12 5t-5 12v666q0 7 5 12t12 5q8 0 13.5 -5t5.5 -12v-342q29 46 77.5 73.5t107.5 27.5z" />
<glyph unicode="c" horiz-adv-x="485" d="M222 36q8 0 13 -5t5 -13t-5 -13t-13 -5q-46 0 -86.5 17.5t-70.5 47.5t-47.5 70.5t-17.5 86.5q0 50 22 97q4 7 11 9.5t13 -0.5q7 -4 9.5 -10.5t-0.5 -13.5q-19 -38 -19 -82q0 -39 14.5 -72.5t40 -59t59 -40t72.5 -14.5zM386 371q5 -5 5 -12.5t-6 -12.5q-5 -5 -12 -5t-13 6 q-26 29 -62.5 45t-75.5 16q-38 0 -72 -14q-16 -6 -32 -18q-6 -4 -13 -2.5t-12 7.5t-3 13t8 12q9 6 18 11t20 10q42 17 86 17q47 0 89.5 -19t74.5 -54z" />
<glyph unicode="d" horiz-adv-x="530" d="M426 699q8 0 13 -4.5t5 -11.5v-665q0 -8 -5 -13t-13 -5t-12.5 5t-4.5 13v203q0 39 -15 73t-40.5 59.5t-59.5 40.5t-73 15q-38 0 -71.5 -15t-59 -40.5t-40 -59.5t-14.5 -73q0 -38 14.5 -71.5t40 -59t59 -40t71.5 -14.5q53 0 97 27q6 4 13.5 2t12.5 -8q7 -16 -8 -25 q-52 -32 -115 -32q-46 0 -86 17.5t-70 47.5t-47.5 70t-17.5 86t17.5 87t47.5 71t70 47.5t86 17.5q60 0 108.5 -27.5t79.5 -72.5v339q0 16 17 16z" />
<glyph unicode="e" horiz-adv-x="532" d="M222 444q41 0 78 -14t66 -38.5t49 -59t26 -74.5q2 -8 -2.5 -13.5t-12.5 -7.5h-2h-2h-292q-8 0 -13 5t-5 13t5 13t13 5h271q-8 30 -25 54.5t-40.5 42.5t-52.5 28t-61 10q-48 0 -89.5 -22.5t-67.5 -63.5q-21 -31 -27 -70q-1 -8 -1.5 -15t-0.5 -15q0 -39 14.5 -72.5t40 -59 t59 -40t72.5 -14.5q45 0 83.5 19t64.5 54q12 15 22 36q7 16 23 9q7 -3 9.5 -10t-0.5 -14q-11 -24 -25 -42q-32 -42 -78 -65t-99 -23q-46 0 -86.5 17.5t-70.5 47.5t-47.5 70.5t-17.5 86.5q0 18 3 36q4 23 11.5 43.5t20.5 39.5q31 49 80.5 76t106.5 27z" />
<glyph unicode="f" horiz-adv-x="321" d="M196 367q7 0 12 -5t5 -13t-5 -13t-12 -5h-178q-8 0 -13 5t-5 13t5 13t13 5h18v209v1q1 25 11 46.5t26.5 38t38.5 26.5t47 10h24q7 0 12 -5t5 -13t-5 -13t-12 -5h-22q-38 0 -64 -26t-26 -63v-206h125zM53 260q8 0 13 -5t5 -13v-224q0 -8 -5 -13t-13 -5t-12.5 5t-4.5 13 v224q0 8 4.5 13t12.5 5z" />
<glyph unicode="g" d="M426 443q8 0 13.5 -5t5.5 -13v-505q0 -46 -17.5 -86.5t-48 -70.5t-71 -47.5t-86.5 -17.5t-86.5 17.5t-70.5 47.5t-47.5 70.5t-17.5 86.5q0 29 7 56q2 7 8 10.5t14 1.5q7 -2 10.5 -8t1.5 -14q-2 -11 -3.5 -22.5t-1.5 -23.5q0 -39 14.5 -72.5t40 -59t59 -40t72.5 -14.5 t73 14.5t59.5 40t40 59t14.5 72.5v301q0 39 -14.5 73t-40 59.5t-59.5 40t-73 14.5t-72.5 -14.5t-59 -40t-40 -59.5t-14.5 -73t14.5 -72.5t40 -59t59 -40t72.5 -14.5q52 0 96 27q7 4 14 2t11 -8q4 -7 2 -14t-8 -11q-52 -32 -115 -32q-46 0 -86.5 17.5t-70.5 47.5t-47.5 70.5 t-17.5 86.5t17.5 86.5t47.5 71t70.5 48t86.5 17.5q60 0 108.5 -27.5t78.5 -74.5v83q0 8 5 13t12 5z" />
<glyph unicode="h" horiz-adv-x="462" d="M17 163q8 0 13 -5t5 -13v-128q0 -7 -5 -12t-13 -5q-7 0 -12 5t-5 12v128q0 8 5 13t12 5zM180 444q37 0 69.5 -14t57 -38.5t38.5 -57.5t14 -70v-247q0 -7 -4.5 -12t-12.5 -5q-7 0 -12 5t-5 12v247q0 30 -11.5 56.5t-31 46.5t-46 31.5t-56.5 11.5t-56.5 -11.5t-46 -31.5 t-31 -46.5t-11.5 -56.5q0 -7 -5 -12t-13 -5q-7 0 -12 5t-5 12v417q0 7 5 12t12 5q8 0 13 -5t5 -12v-311q24 34 62 54t83 20z" />
<glyph unicode="i" horiz-adv-x="175" d="M36 436q7 0 12 -5t5 -13v-237q0 -8 -5 -12.5t-12 -4.5q-8 0 -13 4.5t-5 12.5v237q0 8 5 13t13 5zM36 80q7 0 12 -5t5 -13v-44q0 -8 -5 -13t-12 -5q-8 0 -13 5t-5 13v44q0 8 5 13t13 5zM36 563q14 0 24.5 -10.5t10.5 -25.5q0 -14 -10.5 -24.5t-24.5 -10.5 q-15 0 -25.5 10.5t-10.5 24.5q0 15 10.5 25.5t25.5 10.5z" />
<glyph unicode="j" horiz-adv-x="231" d="M88 437q8 0 13 -4.5t5 -12.5v-472q0 -7 -5 -12t-13 -5q-7 0 -12 5t-5 12v472q0 8 5 12.5t12 4.5zM88 563q15 0 25 -10.5t10 -24.5q0 -15 -10 -25.5t-25 -10.5q-14 0 -24.5 10.5t-10.5 25.5q0 14 10.5 24.5t24.5 10.5zM88 -138q8 0 13 -5t5 -13q0 -37 -26 -62.5t-63 -25.5 q-7 0 -12 5t-5 12q0 8 5 13t12 5q23 0 38.5 15.5t15.5 37.5q0 8 5 13t12 5z" />
<glyph unicode="k" horiz-adv-x="385" d="M35 221v-204q0 -7 -5 -12t-13 -5q-7 0 -12 5t-5 12v664q0 7 5 12t12 5q8 0 13 -5t5 -12v-414l175 158q5 5 12.5 4.5t12.5 -5.5t4.5 -12t-5.5 -12zM274 30q5 -5 5.5 -12t-4.5 -12q-5 -6 -13 -6q-7 0 -11 4l-155 133q-5 5 -6 12.5t4 12.5t12.5 6t12.5 -4z" />
<glyph unicode="l" horiz-adv-x="220" d="M18 179q-8 0 -13 5t-5 13v483q0 8 5 13t13 5t12.5 -5t4.5 -13v-483q0 -8 -4.5 -13t-12.5 -5zM90 0q-38 0 -64 26t-26 64q0 8 5 13t13 5t12.5 -5t4.5 -13q0 -23 16 -39t39 -16q8 0 13 -4.5t5 -12.5t-5 -13t-13 -5z" />
<glyph unicode="m" horiz-adv-x="677" d="M209 435q7 -2 10 -8.5t1 -13.5q-2 -8 -8.5 -11t-14.5 0q-18 6 -40 6q-25 0 -47 -9.5t-38.5 -26t-26 -39t-9.5 -47.5v-268q0 -8 -5 -13t-13 -5t-13 5t-5 13v407q0 8 5 13t13 5t13 -5t5 -13v-39q22 26 53 42t68 16q28 0 52 -9zM437 444q33 0 61.5 -12.5t49.5 -34t33.5 -50 t12.5 -61.5v-268q0 -8 -5 -13t-12 -5q-8 0 -13 5t-5 13v268q0 25 -9.5 47.5t-26 39t-39 26t-47.5 9.5q-17 0 -32 -4q-40 -11 -65 -43.5t-25 -74.5v-268q0 -8 -5 -13t-13 -5t-13 5t-5 13v268q0 54 32.5 96.5t84.5 56.5q22 5 41 5z" />
<glyph unicode="n" horiz-adv-x="453" d="M178 444q37 0 69.5 -14t56.5 -38t38 -56.5t14 -69.5v-247q0 -8 -5 -13t-13 -5q-7 0 -12 5t-5 13v247q0 29 -11 55t-30.5 45.5t-45.5 30.5t-56 11q-21 0 -42 -6q-7 -2 -13.5 1t-8.5 11q-2 7 1.5 13.5t10.5 8.5q27 8 52 8zM18 443q8 0 13 -5t5 -13v-407q0 -8 -5 -13t-13 -5 t-13 5t-5 13v407q0 8 5 13t13 5z" />
<glyph unicode="o" d="M222 0q-46 0 -86.5 17.5t-70.5 47.5t-47.5 70.5t-17.5 86.5q0 57 28 107q3 7 10 9t14 -2q7 -3 9 -10t-2 -14q-23 -41 -23 -90q0 -39 14.5 -72.5t40 -59t59 -40t72.5 -14.5t72.5 14.5t59 40t40 59t14.5 72.5t-14.5 72.5t-40 59t-59 40t-72.5 14.5q-49 0 -90 -23 q-7 -4 -14 -2t-11 9q-3 6 -1 13t8 11q51 28 108 28q46 0 86.5 -17.5t70.5 -47.5t47.5 -70.5t17.5 -86.5t-17.5 -86.5t-47.5 -70.5t-70.5 -47.5t-86.5 -17.5z" />
<glyph unicode="p" d="M220 444q46 0 86.5 -17.5t70.5 -47.5t47.5 -70t17.5 -85q0 -46 -17.5 -86.5t-47.5 -70.5t-70.5 -47.5t-86.5 -17.5q-29 0 -58 8t-55 25q-14 9 -6 24q4 6 11 8t13 -2q43 -27 95 -27q39 0 72.5 14.5t59 40t40 59t14.5 72.5q0 38 -14.5 71.5t-40 58.5t-59 39.5t-72.5 14.5 q-38 0 -71.5 -14.5t-58.5 -39.5t-39.5 -58.5t-14.5 -71.5v-479q0 -7 -5.5 -12t-13.5 -5q-7 0 -12 5t-5 12v681q0 8 5 13t12 5q8 0 13.5 -5t5.5 -13v-83q29 45 77.5 73t106.5 28z" />
<glyph unicode="q" d="M426 444q8 0 13 -5t5 -13v-684q0 -7 -5 -12.5t-13 -5.5t-13 5.5t-5 12.5v481q0 38 -14.5 72t-40 59t-59.5 39.5t-73 14.5q-38 0 -72 -14.5t-59 -39.5t-39.5 -59t-14.5 -72q0 -39 14.5 -73t39.5 -59.5t59 -40t72 -14.5q26 0 50.5 6.5t45.5 20.5q7 4 14 2t11 -8 q4 -7 2.5 -13.5t-8.5 -10.5q-51 -33 -115 -33q-46 0 -86 17.5t-70 48t-47.5 71t-17.5 86.5q0 45 17.5 85.5t47.5 70.5t70 47.5t86 17.5q60 0 108.5 -28t78.5 -73v83q0 8 5 13t13 5z" />
<glyph unicode="r" horiz-adv-x="294" d="M222 444q8 0 13 -5t5 -13t-5 -13t-13 -5q-52 0 -99 -28q-5 -3 -9 -3q-10 0 -16 8q-4 7 -2 14t8 11q54 34 118 34zM18 443q8 0 13 -5t5 -13v-407q0 -8 -5 -13t-13 -5t-13 5t-5 13v407q0 8 5 13t13 5z" />
<glyph unicode="s" horiz-adv-x="385" d="M49 228q6 -5 7.5 -12t-2.5 -13q-18 -27 -18 -60q0 -17 4 -29q3 -17 -13 -22q-1 -1 -5 -1q-12 0 -17 13q-2 7 -3 13t-1 13l-1 1v12q0 44 24 80q11 14 25 5zM231 256q26 -20 40.5 -49.5t14.5 -63.5q0 -30 -11 -56t-30.5 -45.5t-45.5 -30.5t-56 -11q-44 0 -81 25 q-14 11 -5 25q11 14 25 5q26 -19 61 -19q22 0 41.5 8.5t34.5 23t23.5 34t8.5 41.5q0 52 -42 85q-29 23 -66 23q-40 0 -67.5 28t-27.5 68q0 41 28 69t68 28q20 0 37.5 -7.5t31 -20.5t21 -31t7.5 -38q0 -8 -5 -13t-13 -5t-13 5t-5 13q0 26 -17.5 43.5t-43.5 17.5 q-25 0 -43 -17.5t-18 -43.5q0 -25 18 -43t43 -18h1q47 0 86 -30z" />
<glyph unicode="t" horiz-adv-x="301" d="M176 373q8 0 13 -5t5 -13t-5 -12.5t-13 -4.5h-158q-8 0 -13 4.5t-5 12.5t5 13t13 5h35v196q0 8 5 13t13 5q7 0 12 -5t5 -13v-196h88zM143 35q7 0 12 -5t5 -12q0 -8 -5 -13t-12 -5q-37 0 -63 25.5t-27 62.5v1v160q0 8 5 13t13 5q7 0 12 -5t5 -13v-159q0 -23 16 -39t39 -16 z" />
<glyph unicode="u" horiz-adv-x="461" d="M237 48q16 7 23 -9t-9 -23q-33 -16 -73 -16q-37 0 -69.5 14t-56.5 38t-38 56.5t-14 69.5v247q0 8 5 13t13 5t13 -5t5 -13v-247q0 -29 11 -55t30.5 -45.5t45.5 -30.5t55 -11q30 0 59 12zM338 444q8 0 13 -5t5 -13v-407q0 -8 -5 -13t-13 -5q-7 0 -12 5t-5 13v407q0 8 5 13 t12 5z" />
<glyph unicode="v" horiz-adv-x="479" d="M159 141q3 -7 0 -14t-10 -9q-4 -2 -7 -2q-11 0 -16 11l-125 292q-2 7 0.5 14t9.5 10q16 5 23 -10zM373 443q7 -3 9.5 -10t-0.5 -14l-174 -408q-5 -11 -16 -11q-5 0 -7 1q-7 3 -9.5 10t-0.5 14l175 408q2 7 9 9.5t14 0.5z" />
<glyph unicode="w" horiz-adv-x="553" d="M18 109q-8 0 -13 5t-5 12v300q0 8 5 13t13 5q7 0 12 -5t5 -13v-300q0 -7 -5 -12t-12 -5zM447 444q8 0 12.5 -5t4.5 -13v-408q0 -8 -4.5 -13t-12.5 -5h-1q-3 0 -5.5 1t-5.5 3l-203 158l-203 -158q-5 -4 -11 -4q-10 0 -14 7q-5 6 -4 13t7 12l214 166q4 3 8 3h3h3q5 0 8 -3 l186 -144v372q0 8 5 13t13 5z" />
<glyph unicode="x" horiz-adv-x="442" d="M341 30q4 -6 3 -13t-7 -12q-5 -3 -10 -3q-9 0 -15 7l-308 407q-5 5 -4 12t7 12t13 4t12 -7l141 -186l139 184q5 5 12 6.5t13 -3.5t7 -12t-3 -13l-146 -191zM109 167q5 6 12 7.5t13 -3.5t7 -12t-4 -13l-105 -139q-6 -7 -14 -7q-7 0 -11 4q-6 4 -7 11t4 13z" />
<glyph unicode="y" horiz-adv-x="486" d="M385 439q6 -3 8.5 -10t-0.5 -14l-319 -654q-5 -10 -16 -10q-2 0 -8 2q-6 3 -8.5 9.5t0.5 13.5l319 655q3 6 10 8.5t14 -0.5zM124 136q-12 0 -17 11l-106 273q-5 16 10 23q16 5 23 -10l106 -273q5 -16 -10 -23q-2 0 -3 -0.5t-3 -0.5z" />
<glyph unicode="z" horiz-adv-x="503" d="M111 408q-8 0 -13 5t-5 13t5 13t13 5h279q8 0 13 -5t5 -13t-5 -13t-13 -5h-279zM403 36q8 0 13 -5t5 -13t-5 -13t-13 -5h-385q-8 0 -13 5t-5 13v1q0 8 5 13l294 321q5 5 12.5 5.5t12.5 -4.5q6 -5 6.5 -12.5t-4.5 -12.5l-269 -293h346z" />
<glyph unicode="{" horiz-adv-x="338" d="M179 -265q8 0 13 -5t5 -13t-5 -13t-13 -5q-22 0 -41.5 8.5t-34 23t-23 34t-8.5 41.5v304l-67 67q-5 5 -5 12.5t5 12.5l67 67v304q0 22 8.5 41.5t23 34t34 23t41.5 8.5q8 0 13 -5t5 -13t-5 -13t-13 -5q-29 0 -50 -21t-21 -50v-767q0 -29 21 -50t50 -21z" />
<glyph unicode="|" horiz-adv-x="182" d="M18 680q8 0 13 -5t5 -13v-945q0 -8 -5 -13t-13 -5t-13 5t-5 13v945q0 8 5 13t13 5z" />
<glyph unicode="}" horiz-adv-x="338" d="M0 -283q0 8 5 13t13 5q29 0 50 21t21 50v767q0 29 -21 50t-50 21q-8 0 -13 5t-5 13t5 13t13 5q22 0 41.5 -8.5t34 -23t23 -34t8.5 -41.5v-304l67 -67q5 -5 5 -12.5t-5 -12.5l-67 -67v-304q0 -22 -8.5 -41.5t-23 -34t-34 -23t-41.5 -8.5q-8 0 -13 5t-5 13z" />
<glyph unicode="~" horiz-adv-x="305" d="M175 235q8 -5 9.5 -13t-3.5 -15q-12 -19 -35 -24q-3 -1 -11 -1q-17 0 -30 9l-48 32q-4 3 -11 1q-5 0 -8 -5q-7 -10 -17 -10q-7 0 -12 4q-7 5 -9 13t3 15q13 19 35 24t41 -8l49 -32q3 -2 10 -2q6 1 9 6q5 8 13 9.5t15 -3.5z" />
<glyph unicode="&#x2dc;" horiz-adv-x="305" d="M178 233q5 -2 6 -7.5t-2 -10.5q-7 -11 -18.5 -17t-23.5 -6q-15 0 -28 9l-54 35q-8 5 -18.5 3t-15.5 -10q-5 -6 -11 -6q-5 0 -7 2q-11 7 -4 18q11 17 32 21.5t38 -6.5l54 -36q9 -5 19 -3t15 11q7 10 18 3z" />
<glyph unicode="&#x2013;" horiz-adv-x="321" d="M182 253q8 0 13.5 -6t5.5 -14q0 -19 -19 -19h-163q-8 0 -13.5 5.5t-5.5 13.5t5.5 14t13.5 6h163v0z" />
<glyph unicode="&#x2014;" horiz-adv-x="411" d="M272 253q8 0 13.5 -6t5.5 -14q0 -19 -19 -19h-253q-8 0 -13.5 5.5t-5.5 13.5t5.5 14t13.5 6h253v0z" />
<glyph unicode="&#x2018;" horiz-adv-x="279" d="M73 597q31 0 52.5 -21.5t21.5 -51.5q0 -31 -21.5 -52.5t-52.5 -21.5q-30 0 -51.5 21.5t-21.5 52.5q0 13 5 26v1l1 1v1l57 120q2 5 6 6.5t9 -0.5q11 -6 6 -16l-33 -70q5 2 10.5 3t11.5 1z" />
<glyph unicode="&#x2019;" horiz-adv-x="279" d="M73 534q-30 0 -51.5 21.5t-21.5 51.5t21.5 51.5t51.5 21.5q31 0 52.5 -21.5t21.5 -51.5q0 -15 -6 -27v-1q0 -1 -1 -1l-56 -121q-5 -10 -16 -6q-10 5 -5 16l33 71q-11 -4 -23 -4z" />
<glyph unicode="&#x201c;" horiz-adv-x="464" d="M277 597q30 0 51.5 -21.5t21.5 -51.5q0 -31 -21.5 -52.5t-51.5 -21.5t-51.5 21.5t-21.5 52.5q0 13 5 26v1v1l1 1l56 120q6 11 16 6t6 -16l-33 -70q5 2 10.5 3t11.5 1zM73 597q31 0 52.5 -21.5t21.5 -51.5q0 -31 -21.5 -52.5t-52.5 -21.5q-30 0 -51.5 21.5t-21.5 52.5 q0 13 5 26v1l1 1v1l57 120q2 5 6 6.5t9 -0.5q11 -6 6 -16l-33 -70q5 2 10.5 3t11.5 1z" />
<glyph unicode="&#x201d;" horiz-adv-x="464" d="M73 534q-30 0 -51.5 21.5t-21.5 51.5t21.5 51.5t51.5 21.5q31 0 52.5 -21.5t21.5 -51.5q0 -15 -6 -27v-1q0 -1 -1 -1l-56 -121q-5 -10 -16 -6q-10 5 -5 16l33 71q-11 -4 -23 -4zM277 534q-30 0 -51.5 21.5t-21.5 51.5t21.5 51.5t51.5 21.5t51.5 -21.5t21.5 -51.5 q0 -14 -5 -27v-1l-1 -1l-56 -121q-5 -10 -16 -6q-10 5 -6 16l33 71q-9 -4 -22 -4z" />
<glyph unicode="&#x2044;" horiz-adv-x="280" />
<glyph unicode="&#x25fc;" horiz-adv-x="445" d="M0 445h445v-445h-445v445z" />
</font>
</defs>
</svg>
